<svg xmlns="http://www.w3.org/2000/svg" viewBox="0 0 500 500"><g id="freepik--background-complete--inject-62"><rect y="382.4" width="500" height="0.25" style="fill:#ebebeb"></rect><rect x="416.78" y="398.49" width="33.12" height="0.25" style="fill:#ebebeb"></rect><rect x="322.53" y="401.21" width="8.69" height="0.25" style="fill:#ebebeb"></rect><rect x="396.59" y="389.21" width="19.19" height="0.25" style="fill:#ebebeb"></rect><rect x="52.46" y="390.89" width="43.19" height="0.25" style="fill:#ebebeb"></rect><rect x="104.56" y="390.89" width="6.33" height="0.25" style="fill:#ebebeb"></rect><rect x="131.47" y="395.11" width="93.68" height="0.25" style="fill:#ebebeb"></rect><path d="M237,337.8H43.91a5.71,5.71,0,0,1-5.7-5.71V60.66A5.71,5.71,0,0,1,43.91,55H237a5.71,5.71,0,0,1,5.71,5.71V332.09A5.71,5.71,0,0,1,237,337.8ZM43.91,55.2a5.46,5.46,0,0,0-5.45,5.46V332.09a5.46,5.46,0,0,0,5.45,5.46H237a5.47,5.47,0,0,0,5.46-5.46V60.66A5.47,5.47,0,0,0,237,55.2Z" style="fill:#ebebeb"></path><path d="M453.31,337.8H260.21a5.72,5.72,0,0,1-5.71-5.71V60.66A5.72,5.72,0,0,1,260.21,55h193.1A5.71,5.71,0,0,1,459,60.66V332.09A5.71,5.71,0,0,1,453.31,337.8ZM260.21,55.2a5.47,5.47,0,0,0-5.46,5.46V332.09a5.47,5.47,0,0,0,5.46,5.46h193.1a5.47,5.47,0,0,0,5.46-5.46V60.66a5.47,5.47,0,0,0-5.46-5.46Z" style="fill:#ebebeb"></path><path d="M388.29,82.11v37.21h22.84V82.11A2.15,2.15,0,0,0,409,80H390.43A2.14,2.14,0,0,0,388.29,82.11Zm11.42,4.82a5.27,5.27,0,1,1-5.27,5.27A5.27,5.27,0,0,1,399.71,86.93Zm0,28.44a7,7,0,1,1,7-7A7,7,0,0,1,399.71,115.37Z" style="fill:#e0e0e0"></path><path d="M402,92.2a2.26,2.26,0,1,1-2.25-2.26A2.25,2.25,0,0,1,402,92.2Z" style="fill:#e0e0e0"></path><path d="M403.77,108.38a4.06,4.06,0,1,1-4.06-4.06A4.06,4.06,0,0,1,403.77,108.38Z" style="fill:#e0e0e0"></path><path d="M355.88,82.11v37.21h22.83V82.11A2.14,2.14,0,0,0,376.57,80H358A2.14,2.14,0,0,0,355.88,82.11Zm11.42,4.82A5.27,5.27,0,1,1,362,92.2,5.27,5.27,0,0,1,367.3,86.93Zm0,28.44a7,7,0,1,1,7-7A7,7,0,0,1,367.3,115.37Z" style="fill:#e0e0e0"></path><path d="M369.55,92.2a2.26,2.26,0,1,1-2.25-2.26A2.25,2.25,0,0,1,369.55,92.2Z" style="fill:#e0e0e0"></path><path d="M371.36,108.38a4.07,4.07,0,1,1-4.06-4.06A4.06,4.06,0,0,1,371.36,108.38Z" style="fill:#e0e0e0"></path><path d="M57.45,136.5v-7a12.83,12.83,0,0,1,12.83-12.84h1.58A12.15,12.15,0,0,1,84,128.78v7.72a3.89,3.89,0,0,0-2.77,0v-7.16a10.06,10.06,0,0,0-10.07-10.06h0A10.82,10.82,0,0,0,60.34,130.1v6.4A3.9,3.9,0,0,0,57.45,136.5Z" style="fill:#e0e0e0"></path><rect x="79.55" y="136.69" width="6.25" height="11.38" rx="2.82" style="fill:#e0e0e0"></rect><path d="M86.36,139.58h.15A1.43,1.43,0,0,1,87.95,141v2.09a1.43,1.43,0,0,1-1.43,1.43h-.15a0,0,0,0,1,0,0v-5A0,0,0,0,1,86.36,139.58Z" style="fill:#e0e0e0"></path><rect x="55.81" y="136.69" width="6.25" height="11.38" rx="2.82" transform="translate(117.88 284.76) rotate(180)" style="fill:#e0e0e0"></rect><path d="M53.67,139.58h.15A1.43,1.43,0,0,1,55.25,141v2.09a1.43,1.43,0,0,1-1.43,1.43h-.15a0,0,0,0,1,0,0v-5A0,0,0,0,1,53.67,139.58Z" transform="translate(108.92 284.12) rotate(180)" style="fill:#e0e0e0"></path><path d="M427,225.15a12,12,0,0,0-12,12c0,6.65,12,23.59,12,23.59s12.05-16.94,12.05-23.59A12,12,0,0,0,427,225.15Zm.11,17.83a5.7,5.7,0,1,1,5.71-5.7A5.7,5.7,0,0,1,427.11,243Z" style="fill:#e0e0e0"></path><path d="M427,225.15a12,12,0,0,0-12,12c0,6.65,12,23.59,12,23.59s12.05-16.94,12.05-23.59A12,12,0,0,0,427,225.15Zm.11,17.83a5.7,5.7,0,1,1,5.71-5.7A5.7,5.7,0,0,1,427.11,243Z" style="fill:#e0e0e0"></path><rect x="173.43" y="60.99" width="35.95" height="35.95" rx="11.01" style="fill:#e0e0e0"></rect><path d="M185,84.8a2.08,2.08,0,0,1-1.37-1.32c-.61-1.61-.87-8.34.25-9.7a2.19,2.19,0,0,1,1.43-.79c3-.32,12.47-.28,13.55.12a2.11,2.11,0,0,1,1.33,1.28c.66,1.66.75,7.74,0,9.35a2,2,0,0,1-.94,1C198.23,85.3,186.52,85.29,185,84.8Zm3.25-1.53L196.39,79l-8.22-4.26c0,2.83.06,5.65.1,8.5Z" style="fill:#fff;fill-rule:evenodd"></path><path d="M86.92,272.29H59.2a4.62,4.62,0,0,0-4.63,4.61V288a4.62,4.62,0,0,0,4.63,4.61H86.92A4.6,4.6,0,0,0,91.53,288V276.9A4.6,4.6,0,0,0,86.92,272.29ZM73,291.18a8.73,8.73,0,1,1,8.71-8.74A8.75,8.75,0,0,1,73,291.18ZM86.83,276.9H82.29v-2.42h4.54Z" style="fill:#e0e0e0;fill-rule:evenodd"></path><path d="M76.79,266.09h-6a1,1,0,0,0-1,1v4.82h8v-4.82A1,1,0,0,0,76.79,266.09ZM76.52,271H71.11v-3a1,1,0,0,1,1-1h3.4a1,1,0,0,1,1,1Z" style="fill:#e0e0e0;fill-rule:evenodd"></path><path d="M73,275.6a6.85,6.85,0,1,0,6.84,6.84A6.87,6.87,0,0,0,73,275.6Zm0,11.65a4.8,4.8,0,1,1,4.8-4.8A4.81,4.81,0,0,1,73,287.25Z" style="fill:#e0e0e0;fill-rule:evenodd"></path></g><g id="freepik--Shadow--inject-62"><ellipse id="freepik--path--inject-62" cx="250" cy="416.24" rx="193.89" ry="11.32" style="fill:#f5f5f5"></ellipse></g><g id="freepik--Board--inject-62"><polygon points="200.04 409.44 199.06 409.44 199.06 298.91 195.82 298.91 195.82 409.44 194.99 409.44 178.97 411.29 178.97 415.93 215.64 415.93 215.64 411.29 200.04 409.44" style="fill:#7E57C2"></polygon><polygon points="200.04 409.44 199.06 409.44 199.06 298.91 195.82 298.91 195.82 409.44 194.99 409.44 178.97 411.29 178.97 415.93 215.64 415.93 215.64 411.29 200.04 409.44" style="fill:#fff;opacity:0.6000000000000001"></polygon><rect x="195.82" y="339.81" width="3.24" height="6.87" style="opacity:0.2"></rect><polygon points="300.34 409.44 299.35 409.44 299.35 298.91 296.12 298.91 296.12 409.44 295.28 409.44 279.26 411.29 279.26 415.93 315.93 415.93 315.93 411.29 300.34 409.44" style="fill:#7E57C2"></polygon><polygon points="300.34 409.44 299.35 409.44 299.35 298.91 296.12 298.91 296.12 409.44 295.28 409.44 279.26 411.29 279.26 415.93 315.93 415.93 315.93 411.29 300.34 409.44" style="fill:#fff;opacity:0.6000000000000001"></polygon><rect x="296.12" y="339.81" width="3.24" height="6.87" style="opacity:0.2"></rect><rect x="157.4" y="112.62" width="181.98" height="230.7" style="fill:#7E57C2"></rect><rect x="157.4" y="112.62" width="181.98" height="230.7" style="fill:#fff;opacity:0.30000000000000004"></rect><rect x="160.64" y="116.73" width="175.51" height="222.49" style="fill:#fff;opacity:0.7000000000000001"></rect><polygon points="191.84 287.62 197.67 261.21 167.98 250.69 191.73 234.36 163.44 208.45 194.79 200.72 189.9 180.51 217.58 190.75 214.44 150.7 241.29 179.58 254.69 134.87 274.13 179.11 311.52 153.96 299.88 195.88 332.02 214.04 301.48 231.44 325.15 267.13 286.54 270.39 286.54 304.85 260.76 277.84 235.32 302.05 231.85 275.04 191.84 287.62" style="fill:#7E57C2"></polygon><polygon points="191.84 287.62 197.67 261.21 167.98 250.69 191.73 234.36 163.44 208.45 194.79 200.72 189.9 180.51 217.58 190.75 214.44 150.7 241.29 179.58 254.69 134.87 274.13 179.11 311.52 153.96 299.88 195.88 332.02 214.04 301.48 231.44 325.15 267.13 286.54 270.39 286.54 304.85 260.76 277.84 235.32 302.05 231.85 275.04 191.84 287.62" style="fill:#fff;opacity:0.5"></polygon><path d="M293.37,200.2H211.32a7.77,7.77,0,0,0-7.74,7L199,253.75a7.78,7.78,0,0,0,7.74,8.53h82a7.77,7.77,0,0,0,7.73-7l4.54-46.54A7.76,7.76,0,0,0,293.37,200.2Z" style="fill:#263238"></path><path d="M288.48,200.05H206.43a7.77,7.77,0,0,0-7.73,7l-4.54,46.54a7.76,7.76,0,0,0,7.73,8.52h82.05a7.77,7.77,0,0,0,7.74-7l4.54-46.54A7.78,7.78,0,0,0,288.48,200.05Z" style="fill:#7E57C2"></path><path d="M288.48,200.05H206.43a7.77,7.77,0,0,0-7.73,7l-4.54,46.54a7.76,7.76,0,0,0,7.73,8.52h82.05a7.77,7.77,0,0,0,7.74-7l4.54-46.54A7.78,7.78,0,0,0,288.48,200.05Z" style="fill:#fff;opacity:0.05"></path><polygon points="274.47 200.06 220.16 200.06 214.1 262.13 268.41 262.13 274.47 200.06" style="fill:#fff;opacity:0.6000000000000001"></polygon><path d="M204.79,253.42c0,1.76-1,3.18-2.33,3.18s-2.32-1.42-2.32-3.18,1-3.18,2.32-3.18S204.79,251.67,204.79,253.42Z" style="fill:#263238"></path><path d="M204.25,253.42c0,1.76-1,3.18-2.33,3.18s-2.33-1.42-2.33-3.18,1-3.18,2.33-3.18S204.25,251.67,204.25,253.42Z" style="fill:#7E57C2"></path><path d="M204.25,253.42c0,1.76-1,3.18-2.33,3.18s-2.33-1.42-2.33-3.18,1-3.18,2.33-3.18S204.25,251.67,204.25,253.42Z" style="opacity:0.5"></path><ellipse cx="208.6" cy="253.42" rx="2.33" ry="3.18" style="fill:#263238"></ellipse><path d="M210.39,253.42c0,1.76-1,3.18-2.33,3.18s-2.33-1.42-2.33-3.18,1.05-3.18,2.33-3.18S210.39,251.67,210.39,253.42Z" style="fill:#7E57C2"></path><path d="M210.39,253.42c0,1.76-1,3.18-2.33,3.18s-2.33-1.42-2.33-3.18,1.05-3.18,2.33-3.18S210.39,251.67,210.39,253.42Z" style="opacity:0.4"></path><path d="M278.26,253.37c0,1.73-1,3.13-2.29,3.13s-2.29-1.4-2.29-3.13,1-3.13,2.29-3.13S278.26,251.64,278.26,253.37Z" style="fill:#263238"></path><path d="M277.73,253.37c0,1.73-1,3.13-2.29,3.13s-2.29-1.4-2.29-3.13,1-3.13,2.29-3.13S277.73,251.64,277.73,253.37Z" style="fill:#7E57C2"></path><path d="M277.73,253.37c0,1.73-1,3.13-2.29,3.13s-2.29-1.4-2.29-3.13,1-3.13,2.29-3.13S277.73,251.64,277.73,253.37Z" style="opacity:0.30000000000000004"></path><path d="M284.31,253.37c0,1.73-1,3.13-2.29,3.13s-2.29-1.4-2.29-3.13,1-3.13,2.29-3.13S284.31,251.64,284.31,253.37Z" style="fill:#263238"></path><path d="M283.78,253.37c0,1.73-1,3.13-2.3,3.13s-2.29-1.4-2.29-3.13,1-3.13,2.29-3.13S283.78,251.64,283.78,253.37Z" style="fill:#7E57C2"></path><path d="M283.78,253.37c0,1.73-1,3.13-2.3,3.13s-2.29-1.4-2.29-3.13,1-3.13,2.29-3.13S283.78,251.64,283.78,253.37Z" style="opacity:0.2"></path><path d="M282.27,216.54c0,2-1.19,3.65-2.67,3.65s-2.67-1.64-2.67-3.65,1.2-3.65,2.67-3.65S282.27,214.53,282.27,216.54Z" style="fill:#263238"></path><ellipse cx="278.98" cy="216.54" rx="2.67" ry="3.65" style="fill:#7E57C2"></ellipse><ellipse cx="278.98" cy="216.54" rx="2.67" ry="3.65" style="fill:#fff;opacity:0.2"></ellipse><path d="M282.27,226.36c0,2-1.19,3.65-2.67,3.65s-2.67-1.64-2.67-3.65,1.2-3.65,2.67-3.65S282.27,224.35,282.27,226.36Z" style="fill:#263238"></path><ellipse cx="278.98" cy="226.36" rx="2.67" ry="3.65" style="fill:#7E57C2"></ellipse><ellipse cx="278.98" cy="226.36" rx="2.67" ry="3.65" style="fill:#fff;opacity:0.5"></ellipse><ellipse cx="288.09" cy="226.36" rx="2.67" ry="3.65" style="fill:#263238"></ellipse><ellipse cx="287.46" cy="226.36" rx="2.67" ry="3.65" style="fill:#7E57C2"></ellipse><ellipse cx="287.46" cy="226.36" rx="2.67" ry="3.65" style="fill:#fff;opacity:0.30000000000000004"></ellipse><ellipse cx="288.09" cy="216.54" rx="2.67" ry="3.65" style="fill:#263238"></ellipse><ellipse cx="287.46" cy="216.54" rx="2.67" ry="3.65" style="fill:#7E57C2"></ellipse><ellipse cx="287.46" cy="216.54" rx="2.67" ry="3.65" style="fill:#fff;opacity:0.4"></ellipse><polygon points="214.02 220.33 210.3 220.33 210.83 215.67 205.23 215.67 204.69 220.33 200.94 220.33 200.43 225.33 204.12 225.33 203.62 229.76 209.22 229.76 209.73 225.33 213.51 225.33 214.02 220.33" style="fill:#263238"></polygon><polygon points="213.2 220.33 209.49 220.33 210.02 215.67 204.41 215.67 203.88 220.33 200.13 220.33 199.62 225.33 203.31 225.33 202.8 229.76 208.41 229.76 208.91 225.33 212.69 225.33 213.2 220.33" style="fill:#7E57C2"></polygon><path d="M207.49,222.83c0,.85-.5,1.53-1.12,1.53s-1.13-.68-1.13-1.53.51-1.53,1.13-1.53S207.49,222,207.49,222.83Z" style="opacity:0.4"></path><polygon points="200.68 222.83 203.51 221.55 202.65 222.83 203.04 224.11 200.68 222.83" style="opacity:0.5"></polygon><polygon points="212.03 222.83 209.23 224.11 210.07 222.83 209.69 221.55 212.03 222.83" style="opacity:0.5"></polygon><polygon points="206.91 216.95 205.37 219.89 206.66 219.31 208.16 219.95 206.91 216.95" style="opacity:0.5"></polygon><polygon points="205.68 228.65 207.22 225.71 205.93 226.29 204.43 225.65 205.68 228.65" style="opacity:0.5"></polygon><polygon points="213.2 220.33 209.49 220.33 210.02 215.67 204.41 215.67 203.88 220.33 200.13 220.33 199.62 225.33 203.31 225.33 202.8 229.76 208.41 229.76 208.91 225.33 212.69 225.33 213.2 220.33" style="opacity:0.05"></polygon><path d="M206.26,239.21a.43.43,0,1,1-.86,0,.43.43,0,1,1,.86,0Z"></path><path d="M204.08,239.21a.43.43,0,1,1-.86,0,.43.43,0,0,1,.86,0Z"></path><path d="M201.9,239.21a.43.43,0,0,1-.43.43.44.44,0,0,1-.43-.43.43.43,0,0,1,.43-.43A.43.43,0,0,1,201.9,239.21Z"></path><path d="M208.44,239.21a.44.44,0,0,1-.87,0,.44.44,0,0,1,.87,0Z"></path><path d="M210.61,239.21a.43.43,0,1,1-.86,0,.43.43,0,1,1,.86,0Z"></path><circle cx="205.83" cy="237.03" r="0.43"></circle><circle cx="205.83" cy="234.85" r="0.43"></circle><circle cx="205.83" cy="241.38" r="0.43"></circle><path d="M205.83,244a.43.43,0,1,1,.43-.43A.43.43,0,0,1,205.83,244Z"></path><circle cx="204.29" cy="237.67" r="0.43"></circle><circle cx="202.75" cy="236.13" r="0.43"></circle><circle cx="207.37" cy="240.75" r="0.43"></circle><circle cx="208.91" cy="242.29" r="0.43"></circle><circle cx="204.29" cy="240.75" r="0.43"></circle><circle cx="202.75" cy="242.29" r="0.43"></circle><circle cx="207.37" cy="237.67" r="0.43"></circle><circle cx="208.91" cy="236.13" r="0.43"></circle><circle cx="282.27" cy="239.64" r="0.43"></circle><circle cx="280.1" cy="239.64" r="0.43"></circle><circle cx="277.92" cy="239.64" r="0.43"></circle><circle cx="284.45" cy="239.64" r="0.43"></circle><path d="M287.06,239.64a.43.43,0,1,1-.43-.43A.43.43,0,0,1,287.06,239.64Z"></path><circle cx="282.27" cy="237.46" r="0.43"></circle><circle cx="282.27" cy="235.28" r="0.43"></circle><circle cx="282.27" cy="241.81" r="0.43"></circle><path d="M282.27,244.42a.43.43,0,1,1,.44-.43A.43.43,0,0,1,282.27,244.42Z"></path><circle cx="280.73" cy="238.1" r="0.43"></circle><circle cx="279.2" cy="236.56" r="0.43"></circle><circle cx="283.81" cy="241.18" r="0.43"></circle><circle cx="285.35" cy="242.72" r="0.43"></circle><circle cx="280.73" cy="241.18" r="0.43"></circle><circle cx="279.2" cy="242.72" r="0.43"></circle><circle cx="283.81" cy="238.1" r="0.43"></circle><circle cx="285.35" cy="236.56" r="0.43"></circle><polygon points="213.06 202.27 212.72 205.74 218.31 205.74 218.66 202.27 213.06 202.27" style="fill:#263238"></polygon><polygon points="213.06 202.27 212.72 205.74 218.31 205.74 218.66 202.27 213.06 202.27" style="fill:#fff;opacity:0.5"></polygon><polygon points="206.07 202.27 205.73 205.74 211.32 205.74 211.68 202.27 206.07 202.27" style="fill:#263238"></polygon><polygon points="206.07 202.27 205.73 205.74 211.32 205.74 211.68 202.27 206.07 202.27" style="fill:#fff;opacity:0.4"></polygon><polygon points="282.65 202.27 282.31 205.74 287.9 205.74 288.25 202.27 282.65 202.27" style="fill:#263238"></polygon><polygon points="282.65 202.27 282.31 205.74 287.9 205.74 288.25 202.27 282.65 202.27" style="fill:#fff;opacity:0.2"></polygon><polygon points="275.67 202.27 275.33 205.74 280.92 205.74 281.27 202.27 275.67 202.27" style="fill:#263238"></polygon><polygon points="275.67 202.27 275.33 205.74 280.92 205.74 281.27 202.27 275.67 202.27" style="fill:#fff;opacity:0.30000000000000004"></polygon><polygon points="272.81 201.64 221.17 201.64 215.11 260.84 266.75 260.84 272.81 201.64" style="fill:#7E57C2"></polygon><path d="M226.61,216.24l-.37,5.49a1.06,1.06,0,0,0,1.06,1.13h4a1.06,1.06,0,0,0,1.06-1l.37-5.49a1.07,1.07,0,0,0-1.07-1.14h-4A1.06,1.06,0,0,0,226.61,216.24Z" style="fill:#7E57C2"></path><path d="M226.61,216.24l-.37,5.49a1.06,1.06,0,0,0,1.06,1.13h4a1.06,1.06,0,0,0,1.06-1l.37-5.49a1.07,1.07,0,0,0-1.07-1.14h-4A1.06,1.06,0,0,0,226.61,216.24Z" style="fill:#fff;opacity:0.30000000000000004"></path><polygon points="229.06 218.42 228.87 221.3 231.18 221.3 231.38 218.42 229.06 218.42" style="fill:#7E57C2"></polygon><polygon points="227.81 216.98 227.62 219.86 229.93 219.86 230.12 216.98 227.81 216.98" style="fill:#7E57C2"></polygon><path d="M237.27,216.24l-.36,5.49a1.06,1.06,0,0,0,1.06,1.13h4a1.06,1.06,0,0,0,1.07-1l.37-5.49a1.07,1.07,0,0,0-1.07-1.14h-4A1.08,1.08,0,0,0,237.27,216.24Z" style="fill:#7E57C2"></path><path d="M237.27,216.24l-.36,5.49a1.06,1.06,0,0,0,1.06,1.13h4a1.06,1.06,0,0,0,1.07-1l.37-5.49a1.07,1.07,0,0,0-1.07-1.14h-4A1.08,1.08,0,0,0,237.27,216.24Z" style="fill:#fff;opacity:0.30000000000000004"></path><polygon points="239.73 218.42 239.54 221.3 241.85 221.3 242.04 218.42 239.73 218.42" style="fill:#7E57C2"></polygon><polygon points="238.48 216.98 238.29 219.86 240.6 219.86 240.79 216.98 238.48 216.98" style="fill:#7E57C2"></polygon><path d="M248.1,216.24l-.37,5.49a1.06,1.06,0,0,0,1.06,1.13h4a1.06,1.06,0,0,0,1.07-1l.37-5.49a1.07,1.07,0,0,0-1.07-1.14h-4A1.06,1.06,0,0,0,248.1,216.24Z" style="fill:#7E57C2"></path><path d="M248.1,216.24l-.37,5.49a1.06,1.06,0,0,0,1.06,1.13h4a1.06,1.06,0,0,0,1.07-1l.37-5.49a1.07,1.07,0,0,0-1.07-1.14h-4A1.06,1.06,0,0,0,248.1,216.24Z" style="fill:#fff;opacity:0.30000000000000004"></path><polygon points="250.55 218.42 250.36 221.3 252.67 221.3 252.87 218.42 250.55 218.42" style="fill:#7E57C2"></polygon><polygon points="249.3 216.98 249.11 219.86 251.42 219.86 251.61 216.98 249.3 216.98" style="fill:#7E57C2"></polygon><path d="M258.87,216.24l-.37,5.49a1.06,1.06,0,0,0,1.06,1.13h4a1.06,1.06,0,0,0,1.07-1l.37-5.49a1.07,1.07,0,0,0-1.07-1.14h-4A1.06,1.06,0,0,0,258.87,216.24Z" style="fill:#7E57C2"></path><path d="M258.87,216.24l-.37,5.49a1.06,1.06,0,0,0,1.06,1.13h4a1.06,1.06,0,0,0,1.07-1l.37-5.49a1.07,1.07,0,0,0-1.07-1.14h-4A1.06,1.06,0,0,0,258.87,216.24Z" style="fill:#fff;opacity:0.30000000000000004"></path><polygon points="261.32 218.42 261.13 221.3 263.44 221.3 263.63 218.42 261.32 218.42" style="fill:#7E57C2"></polygon><polygon points="260.07 216.98 259.88 219.86 262.19 219.86 262.38 216.98 260.07 216.98" style="fill:#7E57C2"></polygon><path d="M224.39,230.17l-.37,5.49a1.07,1.07,0,0,0,1.06,1.14h4a1.07,1.07,0,0,0,1.06-1l.37-5.48a1.07,1.07,0,0,0-1.07-1.14h-4A1.05,1.05,0,0,0,224.39,230.17Z" style="fill:#7E57C2"></path><path d="M224.39,230.17l-.37,5.49a1.07,1.07,0,0,0,1.06,1.14h4a1.07,1.07,0,0,0,1.06-1l.37-5.48a1.07,1.07,0,0,0-1.07-1.14h-4A1.05,1.05,0,0,0,224.39,230.17Z" style="fill:#fff;opacity:0.30000000000000004"></path><polygon points="226.84 232.35 226.65 235.23 228.96 235.23 229.16 232.35 226.84 232.35" style="fill:#7E57C2"></polygon><polygon points="225.59 230.92 225.4 233.79 227.71 233.79 227.9 230.92 225.59 230.92" style="fill:#7E57C2"></polygon><path d="M235.05,230.17l-.36,5.49a1.06,1.06,0,0,0,1.06,1.14h4a1.07,1.07,0,0,0,1.07-1l.37-5.48a1.07,1.07,0,0,0-1.07-1.14h-4A1.07,1.07,0,0,0,235.05,230.17Z" style="fill:#7E57C2"></path><path d="M235.05,230.17l-.36,5.49a1.06,1.06,0,0,0,1.06,1.14h4a1.07,1.07,0,0,0,1.07-1l.37-5.48a1.07,1.07,0,0,0-1.07-1.14h-4A1.07,1.07,0,0,0,235.05,230.17Z" style="fill:#fff;opacity:0.30000000000000004"></path><polygon points="237.51 232.35 237.32 235.23 239.63 235.23 239.82 232.35 237.51 232.35" style="fill:#7E57C2"></polygon><polygon points="236.26 230.92 236.07 233.79 238.38 233.79 238.57 230.92 236.26 230.92" style="fill:#7E57C2"></polygon><path d="M245.88,230.17l-.37,5.49a1.07,1.07,0,0,0,1.06,1.14h4a1.07,1.07,0,0,0,1.06-1l.37-5.48a1.07,1.07,0,0,0-1.07-1.14h-4A1.05,1.05,0,0,0,245.88,230.17Z" style="fill:#7E57C2"></path><path d="M245.88,230.17l-.37,5.49a1.07,1.07,0,0,0,1.06,1.14h4a1.07,1.07,0,0,0,1.06-1l.37-5.48a1.07,1.07,0,0,0-1.07-1.14h-4A1.05,1.05,0,0,0,245.88,230.17Z" style="fill:#fff;opacity:0.30000000000000004"></path><polygon points="248.33 232.35 248.14 235.23 250.45 235.23 250.65 232.35 248.33 232.35" style="fill:#7E57C2"></polygon><polygon points="247.08 230.92 246.89 233.79 249.2 233.79 249.39 230.92 247.08 230.92" style="fill:#7E57C2"></polygon><path d="M256.65,230.17l-.37,5.49a1.07,1.07,0,0,0,1.06,1.14h4a1.07,1.07,0,0,0,1.07-1l.37-5.48a1.07,1.07,0,0,0-1.07-1.14h-4A1.05,1.05,0,0,0,256.65,230.17Z" style="fill:#7E57C2"></path><path d="M256.65,230.17l-.37,5.49a1.07,1.07,0,0,0,1.06,1.14h4a1.07,1.07,0,0,0,1.07-1l.37-5.48a1.07,1.07,0,0,0-1.07-1.14h-4A1.05,1.05,0,0,0,256.65,230.17Z" style="fill:#fff;opacity:0.30000000000000004"></path><polygon points="259.1 232.35 258.91 235.23 261.22 235.23 261.42 232.35 259.1 232.35" style="fill:#7E57C2"></polygon><polygon points="257.85 230.92 257.66 233.79 259.97 233.79 260.16 230.92 257.85 230.92" style="fill:#7E57C2"></polygon><path d="M222.17,245l-.37,5.49a1.07,1.07,0,0,0,1.06,1.14h4a1.07,1.07,0,0,0,1.06-1l.37-5.49a1.07,1.07,0,0,0-1.07-1.13h-4A1.05,1.05,0,0,0,222.17,245Z" style="fill:#7E57C2"></path><path d="M222.17,245l-.37,5.49a1.07,1.07,0,0,0,1.06,1.14h4a1.07,1.07,0,0,0,1.06-1l.37-5.49a1.07,1.07,0,0,0-1.07-1.13h-4A1.05,1.05,0,0,0,222.17,245Z" style="fill:#fff;opacity:0.30000000000000004"></path><polygon points="224.62 247.16 224.43 250.04 226.74 250.04 226.94 247.16 224.62 247.16" style="fill:#7E57C2"></polygon><polygon points="223.37 245.72 223.18 248.6 225.49 248.6 225.68 245.72 223.37 245.72" style="fill:#7E57C2"></polygon><path d="M232.84,245l-.37,5.49a1.07,1.07,0,0,0,1.06,1.14h4a1.07,1.07,0,0,0,1.07-1l.37-5.49a1.07,1.07,0,0,0-1.07-1.13h-4A1.05,1.05,0,0,0,232.84,245Z" style="fill:#7E57C2"></path><path d="M232.84,245l-.37,5.49a1.07,1.07,0,0,0,1.06,1.14h4a1.07,1.07,0,0,0,1.07-1l.37-5.49a1.07,1.07,0,0,0-1.07-1.13h-4A1.05,1.05,0,0,0,232.84,245Z" style="fill:#fff;opacity:0.30000000000000004"></path><polygon points="235.29 247.16 235.1 250.04 237.41 250.04 237.6 247.16 235.29 247.16" style="fill:#7E57C2"></polygon><polygon points="234.04 245.72 233.85 248.6 236.16 248.6 236.35 245.72 234.04 245.72" style="fill:#7E57C2"></polygon><path d="M243.66,245l-.37,5.49a1.07,1.07,0,0,0,1.06,1.14h4a1.07,1.07,0,0,0,1.06-1l.37-5.49A1.07,1.07,0,0,0,248.7,244h-4A1.05,1.05,0,0,0,243.66,245Z" style="fill:#7E57C2"></path><path d="M243.66,245l-.37,5.49a1.07,1.07,0,0,0,1.06,1.14h4a1.07,1.07,0,0,0,1.06-1l.37-5.49A1.07,1.07,0,0,0,248.7,244h-4A1.05,1.05,0,0,0,243.66,245Z" style="fill:#fff;opacity:0.30000000000000004"></path><polygon points="246.11 247.16 245.92 250.04 248.23 250.04 248.43 247.16 246.11 247.16" style="fill:#7E57C2"></polygon><polygon points="244.86 245.72 244.67 248.6 246.98 248.6 247.17 245.72 244.86 245.72" style="fill:#7E57C2"></polygon><path d="M254.43,245l-.37,5.49a1.07,1.07,0,0,0,1.06,1.14h4a1.07,1.07,0,0,0,1.07-1l.37-5.49a1.07,1.07,0,0,0-1.07-1.13h-4A1.05,1.05,0,0,0,254.43,245Z" style="fill:#7E57C2"></path><path d="M254.43,245l-.37,5.49a1.07,1.07,0,0,0,1.06,1.14h4a1.07,1.07,0,0,0,1.07-1l.37-5.49a1.07,1.07,0,0,0-1.07-1.13h-4A1.05,1.05,0,0,0,254.43,245Z" style="fill:#fff;opacity:0.30000000000000004"></path><polygon points="256.88 247.16 256.69 250.04 259 250.04 259.19 247.16 256.88 247.16" style="fill:#7E57C2"></polygon><polygon points="255.63 245.72 255.44 248.6 257.75 248.6 257.94 245.72 255.63 245.72" style="fill:#7E57C2"></polygon><polygon points="252.89 207.35 254.36 207.35 254.49 205.88 253.02 205.88 252.89 207.35" style="fill:#7E57C2"></polygon><polygon points="255.96 205.88 255.83 207.35 257.3 207.35 257.43 205.88 257.56 204.41 256.09 204.41 255.96 205.88" style="fill:#7E57C2"></polygon><polygon points="259.15 202.94 259.02 204.41 258.9 205.88 258.77 207.35 260.24 207.35 260.37 205.88 260.49 204.41 260.62 202.94 259.15 202.94" style="fill:#7E57C2"></polygon><g style="opacity:0.4"><polygon points="252.89 207.35 254.36 207.35 254.49 205.88 253.02 205.88 252.89 207.35" style="fill:#fff"></polygon><polygon points="255.96 205.88 255.83 207.35 257.3 207.35 257.43 205.88 257.56 204.41 256.09 204.41 255.96 205.88" style="fill:#fff"></polygon><polygon points="259.15 202.94 259.02 204.41 258.9 205.88 258.77 207.35 260.24 207.35 260.37 205.88 260.49 204.41 260.62 202.94 259.15 202.94" style="fill:#fff"></polygon></g><path d="M264.64,202.94l-.1,1.08h-.72l-.18,2.15h.72l-.1,1.08h6.46l.38-4.31Zm2.59,3.23h-2.16l.19-2.15h2.15Z" style="fill:#7E57C2"></path><path d="M264.64,202.94l-.1,1.08h-.72l-.18,2.15h.72l-.1,1.08h6.46l.38-4.31Zm2.59,3.23h-2.16l.19-2.15h2.15Z" style="fill:#fff;opacity:0.7000000000000001"></path><circle cx="249.16" cy="206.56" r="0.64" style="fill:#7E57C2"></circle><path d="M249.16,203.54a3,3,0,0,1,2.63,1.58l.63-.46a3.76,3.76,0,0,0-6.62.18l.65.41A3,3,0,0,1,249.16,203.54Z" style="fill:#7E57C2"></path><path d="M249.16,204.6a2,2,0,0,1,1.77,1.16l.63-.47a2.7,2.7,0,0,0-2.4-1.47,2.73,2.73,0,0,0-2.47,1.58l.67.42A2,2,0,0,1,249.16,204.6Z" style="fill:#7E57C2"></path><path d="M249.16,205.62a.93.93,0,0,1,.91.78l.67-.5a1.71,1.71,0,0,0-3.18,0l.69.44A.94.94,0,0,1,249.16,205.62Z" style="fill:#7E57C2"></path><g style="opacity:0.7000000000000001"><circle cx="249.16" cy="206.56" r="0.64" style="fill:#fff"></circle></g><path d="M249.16,203.54a3,3,0,0,1,2.63,1.58l.63-.46a3.76,3.76,0,0,0-6.62.18l.65.41A3,3,0,0,1,249.16,203.54Z" style="fill:#fff;opacity:0.7000000000000001"></path><path d="M249.16,204.6a2,2,0,0,1,1.77,1.16l.63-.47a2.7,2.7,0,0,0-2.4-1.47,2.73,2.73,0,0,0-2.47,1.58l.67.42A2,2,0,0,1,249.16,204.6Z" style="fill:#fff;opacity:0.7000000000000001"></path><path d="M249.16,205.62a.93.93,0,0,1,.91.78l.67-.5a1.71,1.71,0,0,0-3.18,0l.69.44A.94.94,0,0,1,249.16,205.62Z" style="fill:#fff;opacity:0.7000000000000001"></path><polygon points="272.81 201.64 221.17 201.64 215.11 260.84 266.75 260.84 272.81 201.64" style="fill:#fff;opacity:0.1"></polygon><path d="M187.86,312.36a7.2,7.2,0,0,1,3.08,10.34,7,7,0,0,1-3.08,2.56,11.56,11.56,0,0,1-4.7.89h-2.81v4.78h-6.56V311.47h9.37A11.39,11.39,0,0,1,187.86,312.36Zm-3.12,8.13a2.45,2.45,0,0,0,0-3.37,3,3,0,0,0-2-.59h-2.39v4.56h2.39A2.9,2.9,0,0,0,184.74,320.49Z" style="fill:#7E57C2"></path><path d="M202.51,326h-1.78v4.9h-6.56V311.47h9.37a11.34,11.34,0,0,1,4.69.89,6.87,6.87,0,0,1,3.09,2.55,7,7,0,0,1,1.08,3.9,6.88,6.88,0,0,1-.94,3.64,6.66,6.66,0,0,1-2.72,2.47l4.08,6h-7Zm2.61-8.91a3,3,0,0,0-2-.59h-2.39v4.56h2.39a2.9,2.9,0,0,0,2-.6,2.45,2.45,0,0,0,0-3.37Z" style="fill:#7E57C2"></path><path d="M219.44,330.06a10,10,0,0,1,0-17.73,12.8,12.8,0,0,1,11.28,0,10,10,0,0,1,0,17.73,12.8,12.8,0,0,1-11.28,0Zm7.85-4.6a4.21,4.21,0,0,0,1.57-1.69,5.89,5.89,0,0,0,0-5.14,4.24,4.24,0,0,0-1.57-1.7,4.37,4.37,0,0,0-4.42,0,4.24,4.24,0,0,0-1.57,1.7,6,6,0,0,0,0,5.14,4.18,4.18,0,0,0,3.78,2.29A4.16,4.16,0,0,0,227.29,325.46Z" style="fill:#7E57C2"></path><path d="M238.45,311.47H248a13.2,13.2,0,0,1,5.74,1.18,9,9,0,0,1,3.87,3.38,10.44,10.44,0,0,1,0,10.34,9.06,9.06,0,0,1-3.87,3.38,13.34,13.34,0,0,1-5.74,1.18h-9.59Zm9.31,14.34a4.67,4.67,0,0,0,3.38-1.21,5.2,5.2,0,0,0,0-6.81,4.71,4.71,0,0,0-3.38-1.21H245v9.23Z" style="fill:#7E57C2"></path><path d="M263.75,329a9,9,0,0,1-2.5-6.78v-10.7h6.56V322a5.06,5.06,0,0,0,.76,3.11,3,3,0,0,0,4.42,0,5.06,5.06,0,0,0,.77-3.11V311.47h6.45v10.7A9,9,0,0,1,277.7,329a11.26,11.26,0,0,1-13.95,0Z" style="fill:#7E57C2"></path><path d="M287.71,330.08a9.63,9.63,0,0,1-3.87-3.61,10.55,10.55,0,0,1,0-10.54,9.65,9.65,0,0,1,3.87-3.62,11.87,11.87,0,0,1,5.56-1.29,12.32,12.32,0,0,1,5.06,1,9.34,9.34,0,0,1,3.67,2.89l-4.14,3.7a5.32,5.32,0,0,0-4.25-2.28,4.35,4.35,0,0,0-3.31,1.32,5.65,5.65,0,0,0,0,7.09,4.35,4.35,0,0,0,3.31,1.32,5.32,5.32,0,0,0,4.25-2.28l4.14,3.7a9.34,9.34,0,0,1-3.67,2.89,12.16,12.16,0,0,1-5.06,1A11.87,11.87,0,0,1,287.71,330.08Z" style="fill:#7E57C2"></path><path d="M308,316.55h-5.7v-5.08h18v5.08h-5.7v14.38H308Z" style="fill:#7E57C2"></path><path d="M217,174.22l9.27,17.67-16.87-17.67H179.74a9.29,9.29,0,0,1-9.28-9.28v-19.8a9.28,9.28,0,0,1,9.28-9.28H217a9.27,9.27,0,0,1,9.27,9.28v19.8A9.28,9.28,0,0,1,217,174.22Z" style="fill:#7E57C2"></path><path d="M217,174.22l9.27,17.67-16.87-17.67H179.74a9.29,9.29,0,0,1-9.28-9.28v-19.8a9.28,9.28,0,0,1,9.28-9.28H217a9.27,9.27,0,0,1,9.27,9.28v19.8A9.28,9.28,0,0,1,217,174.22Z" style="fill:#fff;opacity:0.30000000000000004"></path><path d="M215.35,150.26h-36a1.9,1.9,0,0,1-1.91-1.91h0a1.9,1.9,0,0,1,1.91-1.91h36a1.9,1.9,0,0,1,1.91,1.91h0A1.9,1.9,0,0,1,215.35,150.26Z" style="fill:#fff"></path><path d="M215.35,156.56h-36a1.9,1.9,0,0,1-1.91-1.91h0a1.9,1.9,0,0,1,1.91-1.91h36a1.9,1.9,0,0,1,1.91,1.91h0A1.9,1.9,0,0,1,215.35,156.56Z" style="fill:#fff"></path><path d="M215.35,162.86h-36a1.9,1.9,0,0,1-1.91-1.91h0a1.9,1.9,0,0,1,1.91-1.91h36a1.9,1.9,0,0,1,1.91,1.91h0A1.9,1.9,0,0,1,215.35,162.86Z" style="fill:#fff"></path><path d="M290.15,166.14,282,191l14.87-24.82H323a8.17,8.17,0,0,0,8.17-8.17V140.53a8.17,8.17,0,0,0-8.17-8.18H290.15a8.17,8.17,0,0,0-8.17,8.18V158A8.17,8.17,0,0,0,290.15,166.14Z" style="fill:#7E57C2"></path><path d="M290.15,166.14,282,191l14.87-24.82H323a8.17,8.17,0,0,0,8.17-8.17V140.53a8.17,8.17,0,0,0-8.17-8.18H290.15a8.17,8.17,0,0,0-8.17,8.18V158A8.17,8.17,0,0,0,290.15,166.14Z" style="fill:#fff;opacity:0.30000000000000004"></path><rect x="293.33" y="158.43" width="27.81" height="0.89" style="fill:#e0e0e0"></rect><polygon points="299.01 153.53 291.81 147.98 291.81 146.17 298.77 151.54 305.74 143.77 307.1 145.45 311.96 140.04 313.58 141.67 321.45 138.41 321.45 139.85 313.11 143.31 312.03 142.22 307.03 147.79 305.67 146.11 299.01 153.53" style="fill:#e0e0e0"></polygon><path d="M206.31,273.69l7.12-21.6-13,21.6H177.75a7.12,7.12,0,0,0-7.12,7.12V296a7.12,7.12,0,0,0,7.12,7.12h28.56a7.12,7.12,0,0,0,7.12-7.12V280.81A7.12,7.12,0,0,0,206.31,273.69Z" style="fill:#7E57C2"></path><path d="M206.31,273.69l7.12-21.6-13,21.6H177.75a7.12,7.12,0,0,0-7.12,7.12V296a7.12,7.12,0,0,0,7.12,7.12h28.56a7.12,7.12,0,0,0,7.12-7.12V280.81A7.12,7.12,0,0,0,206.31,273.69Z" style="fill:#fff;opacity:0.30000000000000004"></path><rect x="174.84" y="295.84" width="34.38" height="1.16" style="fill:#e0e0e0"></rect><rect x="174.84" y="286.39" width="1.82" height="7.41" style="fill:#e0e0e0"></rect><rect x="177.83" y="283.85" width="1.82" height="9.95" style="fill:#e0e0e0"></rect><rect x="180.75" y="281.65" width="1.82" height="12.16" style="fill:#e0e0e0"></rect><rect x="183.66" y="282.89" width="1.82" height="10.91" style="fill:#e0e0e0"></rect><rect x="186.66" y="285.22" width="1.82" height="8.58" style="fill:#e0e0e0"></rect><rect x="189.58" y="285" width="1.82" height="8.8" style="fill:#e0e0e0"></rect><rect x="192.66" y="284.72" width="1.82" height="9.08" style="fill:#e0e0e0"></rect><rect x="195.66" y="282.89" width="1.82" height="10.91" style="fill:#e0e0e0"></rect><rect x="198.57" y="280.98" width="1.82" height="12.83" style="fill:#e0e0e0"></rect><rect x="201.49" y="285.22" width="1.82" height="8.58" style="fill:#e0e0e0"></rect><rect x="204.48" y="281.85" width="1.82" height="11.95" style="fill:#e0e0e0"></rect><rect x="207.4" y="279.35" width="1.82" height="14.45" style="fill:#e0e0e0"></rect><path d="M284.52,277.12l-7-21.34,12.78,21.34h22.45a7,7,0,0,1,7,7v15a7,7,0,0,1-7,7h-28.2a7,7,0,0,1-7-7v-15A7,7,0,0,1,284.52,277.12Z" style="fill:#7E57C2"></path><path d="M284.52,277.12l-7-21.34,12.78,21.34h22.45a7,7,0,0,1,7,7v15a7,7,0,0,1-7,7h-28.2a7,7,0,0,1-7-7v-15A7,7,0,0,1,284.52,277.12Z" style="fill:#fff;opacity:0.30000000000000004"></path><path d="M290.84,298.42a5.47,5.47,0,1,1-5.46-5.46A5.46,5.46,0,0,1,290.84,298.42Z" style="fill:#f5f5f5"></path><path d="M289.32,299.67c-.26,0-1.63,0-3.16,0v-.53a2.45,2.45,0,0,0,1.53-2.34,2.24,2.24,0,1,0-4.45,0,2.46,2.46,0,0,0,1.45,2.31v.55c-1.58,0-3,0-3.32,0-.66.11-.65.9-.65.9a5.63,5.63,0,0,0,4.72,3,5.1,5.1,0,0,0,4.48-3S289.92,299.62,289.32,299.67Z" style="fill:#e0e0e0"></path><circle cx="285.38" cy="285.65" r="5.46" style="fill:#f5f5f5"></circle><path d="M289.32,286.9c-.26,0-1.63,0-3.16,0v-.53a2.45,2.45,0,0,0,1.53-2.34,2.24,2.24,0,1,0-4.45,0,2.46,2.46,0,0,0,1.45,2.31v.55c-1.58,0-3,0-3.32,0-.66.11-.65.9-.65.9a5.63,5.63,0,0,0,4.72,3,5.1,5.1,0,0,0,4.48-3S289.92,286.85,289.32,286.9Z" style="fill:#e0e0e0"></path><path d="M304.13,298.42a5.47,5.47,0,1,1-5.46-5.46A5.46,5.46,0,0,1,304.13,298.42Z" style="fill:#f5f5f5"></path><path d="M302.61,299.67c-.26,0-1.63,0-3.16,0v-.53a2.45,2.45,0,0,0,1.53-2.34,2.24,2.24,0,1,0-4.45,0,2.46,2.46,0,0,0,1.45,2.31v.55c-1.58,0-3,0-3.32,0-.66.11-.65.9-.65.9a5.65,5.65,0,0,0,4.72,3,5.1,5.1,0,0,0,4.48-3S303.21,299.62,302.61,299.67Z" style="fill:#e0e0e0"></path><circle cx="298.67" cy="285.65" r="5.46" style="fill:#f5f5f5"></circle><path d="M302.61,286.9c-.26,0-1.63,0-3.16,0v-.53A2.45,2.45,0,0,0,301,284a2.24,2.24,0,1,0-4.45,0,2.46,2.46,0,0,0,1.45,2.31v.55c-1.58,0-3,0-3.32,0-.66.11-.65.9-.65.9a5.65,5.65,0,0,0,4.72,3,5.1,5.1,0,0,0,4.48-3S303.21,286.85,302.61,286.9Z" style="fill:#e0e0e0"></path><path d="M316.84,298.42a5.47,5.47,0,1,1-5.46-5.46A5.46,5.46,0,0,1,316.84,298.42Z" style="fill:#f5f5f5"></path><path d="M315.32,299.67c-.26,0-1.63,0-3.16,0v-.53a2.45,2.45,0,0,0,1.53-2.34,2.24,2.24,0,1,0-4.45,0,2.46,2.46,0,0,0,1.45,2.31v.55c-1.59,0-3,0-3.32,0-.66.11-.65.9-.65.9a5.63,5.63,0,0,0,4.72,3,5.1,5.1,0,0,0,4.48-3S315.92,299.62,315.32,299.67Z" style="fill:#e0e0e0"></path><path d="M316.84,285.65a5.47,5.47,0,1,1-5.46-5.46A5.47,5.47,0,0,1,316.84,285.65Z" style="fill:#f5f5f5"></path><path d="M315.32,286.9c-.26,0-1.63,0-3.16,0v-.53a2.45,2.45,0,0,0,1.53-2.34,2.24,2.24,0,1,0-4.45,0,2.46,2.46,0,0,0,1.45,2.31v.55c-1.59,0-3,0-3.32,0-.66.11-.65.9-.65.9a5.63,5.63,0,0,0,4.72,3,5.1,5.1,0,0,0,4.48-3S315.92,286.85,315.32,286.9Z" style="fill:#e0e0e0"></path></g><g id="freepik--character-2--inject-62"><path d="M355.77,184.17l-.11.38-.09.29c-.06.18-.12.34-.18.51-.12.33-.25.65-.37,1-.25.62-.52,1.21-.8,1.79-.55,1.17-1.17,2.27-1.8,3.35a50.48,50.48,0,0,1-4.28,6.07c-.77.95-1.58,1.86-2.39,2.77s-1.69,1.75-2.56,2.59a65.57,65.57,0,0,1-5.47,4.7l-.23.19c-.18.13-.39.26-.58.37a9.7,9.7,0,0,1-3.7,1,11,11,0,0,1-3.32-.3,17,17,0,0,1-4.9-2.11,31,31,0,0,1-3.73-2.74q-1.69-1.45-3.19-3c-1-1-1.94-2.08-2.85-3.14s-1.78-2.16-2.63-3.26-1.65-2.22-2.44-3.36c-.39-.57-.77-1.15-1.15-1.72s-.74-1.16-1.11-1.79a2.56,2.56,0,0,1,4-3.1l.06.06,1.35,1.38c.45.47.91.94,1.38,1.4.92.93,1.86,1.84,2.8,2.73s1.9,1.77,2.86,2.62,1.93,1.67,2.92,2.45,2,1.53,3,2.19a24.11,24.11,0,0,0,2.95,1.72,8.55,8.55,0,0,0,2.54.85,2,2,0,0,0,.68,0c.12,0,.12-.08.13-.1l-.81.55c1.55-1.44,3-2.94,4.43-4.47.7-.77,1.37-1.56,2-2.36s1.3-1.6,1.91-2.42c.3-.41.61-.82.89-1.24s.59-.84.87-1.26c.57-.84,1.09-1.7,1.6-2.56s1-1.73,1.39-2.59c.22-.43.41-.86.6-1.28.09-.21.18-.41.26-.61l.11-.28,0-.11,0-.05h0v0a5.14,5.14,0,0,1,9.87,2.89Z" style="fill:#e6ae76"></path><path d="M314,185.81c6.38,6.57,12.36,11.08,18.24,13.76,4.1-3.89,13-19.33,15.2-21s3.14-1.67,3.14-1.67l-3.75,25.27c-3.86,4.6-6.45,7.45-9.46,8.74-8.62,4.76-17.89-6.72-28.17-20Z" style="fill:#263238"></path><path d="M311.54,184.24l-4,3.89-7.08.15a4.14,4.14,0,0,1-3.07-1.29l-1.79-1.91a3.13,3.13,0,0,1-.28-4l2.16-3a3.13,3.13,0,0,1,4.15-.88l3,1.76S312.52,180.22,311.54,184.24Z" style="fill:#e6ae76"></path><path d="M339.6,209.62c4.17-3.05,5.31-9.64,7.24-15.68-.41,1.95-.15,7.05-.2,8.44C344.9,204.42,342.47,207.59,339.6,209.62Z" style="opacity:0.2"></path><path d="M379.36,158c-.84,4.82-1.59,13.64,1.84,16.78,0,0-4.41,6.62-11.51,6.93-6.16.27-3.43-6.61-3.43-6.61,5.34-1.4,5.11-5.37,4.1-9.09Z" style="fill:#e6ae76"></path><path d="M375.69,161.25,370.37,166a15.92,15.92,0,0,1,.52,2.65c2-.34,6.44-4.71,6.61-6.85C377.6,160.92,375.91,162.09,375.69,161.25Z" style="isolation:isolate;opacity:0.2"></path><path d="M367.31,141.24c3.18,2.16,1.74,5.82-5.46,11.54-2.92-3.79-3.41-11.15-1.09-13S364.54,139.37,367.31,141.24Z" style="fill:#263238"></path><path d="M380.41,146.29c-.34,7.77-.16,12.34-4,16.39-5.8,6.1-15.45,2.71-17.44-5-1.77-6.94-.92-18.49,6.63-21.71a10.61,10.61,0,0,1,14.81,10.34Z" style="fill:#e6ae76"></path><path d="M368.85,148.61c0,.64-.32,1.16-.73,1.16s-.75-.5-.76-1.13.31-1.15.72-1.16S368.8,148,368.85,148.61Z" style="fill:#263238"></path><path d="M361.66,148.75c0,.63-.32,1.15-.73,1.15s-.76-.49-.77-1.13.32-1.15.73-1.16S361.65,148.11,361.66,148.75Z" style="fill:#263238"></path><path d="M364,149a22.11,22.11,0,0,1-2.93,5.46,3.64,3.64,0,0,0,3,.51Z" style="fill:#d08245"></path><path d="M370.77,146.32a.48.48,0,0,0,.24-.06.38.38,0,0,0,.07-.52,3.65,3.65,0,0,0-3.05-1.48.35.35,0,0,0-.34.37v0a.39.39,0,0,0,.4.34h0a2.91,2.91,0,0,1,2.4,1.19A.37.37,0,0,0,370.77,146.32Z" style="fill:#263238"></path><path d="M358.35,146.38a.37.37,0,0,0,.33-.22,3,3,0,0,1,2.07-1.71.38.38,0,0,0,.31-.43.37.37,0,0,0-.41-.31,3.7,3.7,0,0,0-2.64,2.14.38.38,0,0,0,.18.49h0A.47.47,0,0,0,358.35,146.38Z" style="fill:#263238"></path><path d="M376.2,140c-1.54.51-2.1,4.71,3.48,12,3.76-3,2.21-8.75.4-11.11S378.19,139.18,376.2,140Z" style="fill:#263238"></path><path d="M384.22,152.44a7.4,7.4,0,0,1-3.45,4.48c-2.25,1.28-4-.59-3.89-3,.09-2.22,1.39-5.54,3.9-5.81S384.83,150.12,384.22,152.44Z" style="fill:#e6ae76"></path><path d="M364.1,157.89a17.92,17.92,0,0,0,5.85-2.57,4.84,4.84,0,0,1-3.93,5.79Z" style="fill:#263238"></path><path d="M367.42,160.61a4.47,4.47,0,0,0,2.42-3,3.41,3.41,0,0,0-2,1.05A2.47,2.47,0,0,0,367.42,160.61Z" style="fill:#de5753"></path><path d="M363.67,136.93l3.18-1.64a3.15,3.15,0,0,1,1.42-.36l3.28-.06a2.84,2.84,0,0,1,1.28.28,16.73,16.73,0,0,1,3.18,1.53c.38.45.38.69.38.69l-4-.79a2.83,2.83,0,0,0-1.81.24l-2.53,1.24a2.65,2.65,0,0,1-1.49.27l-1.09-.11a.92.92,0,0,1-.81-1l.06-.68Z" style="fill:#263238"></path><path d="M378.2,149.14l-.41,5,1.32,3.52.05.33a3,3,0,0,1-.26,1.79l-1.4,3a3.5,3.5,0,0,1-2,1.81L370,166.44a3.48,3.48,0,0,1-2.77-.21l-3.6-1.9,1.23-.46,1.91.56.53-2a1,1,0,0,1,1.48-.56l2,1.34,1.65-3,3.91-2.58-.26-6.58a2.7,2.7,0,0,1,0-.49l.9-5,1.07,2.79A1.71,1.71,0,0,1,378.2,149.14Z" style="fill:#263238"></path><path d="M363.6,156l-2,.12a1.12,1.12,0,0,0-1,.81l-.91,3.27a1.12,1.12,0,0,0,.11.86l.57,1a3.73,3.73,0,0,0,1.33,1.37l2.46,1.19c.53-.12-1.69-2.65-1.73-3.2l-.21-2.84a1.1,1.1,0,0,1,1.1-1.18,3.84,3.84,0,0,0,.91-.27c.29-.17.22-.79.22-.79l.79.23a1.09,1.09,0,0,0,.83-.07l3.14-1.62a1.11,1.11,0,0,1,1.4.33l1.63,2.21a1.15,1.15,0,0,1,.21.62l0,1.25a1.11,1.11,0,0,0,1.68.9h0a1.09,1.09,0,0,0,.53-1l-.18-2.31a1.14,1.14,0,0,0-.29-.66L371,152.65a1.1,1.1,0,0,0-1.39-.2l-5.49,3.35A1.32,1.32,0,0,1,363.6,156Z" style="fill:#263238"></path><path d="M361.62,150.9h-2.91a1.46,1.46,0,0,1-1.46-1.46V147.6a1.46,1.46,0,0,1,1.46-1.46h2.91a1.46,1.46,0,0,1,1.46,1.46v1.84A1.46,1.46,0,0,1,361.62,150.9ZM358.71,147a.58.58,0,0,0-.59.59v1.84a.58.58,0,0,0,.59.59h2.91a.59.59,0,0,0,.6-.59V147.6a.59.59,0,0,0-.6-.59Z" style="fill:#263238"></path><path d="M368.59,150.9h-2.92a1.47,1.47,0,0,1-1.46-1.46V147.6a1.46,1.46,0,0,1,1.46-1.46h2.92a1.46,1.46,0,0,1,1.46,1.46v1.84A1.46,1.46,0,0,1,368.59,150.9ZM365.67,147a.59.59,0,0,0-.59.59v1.84a.59.59,0,0,0,.59.59h2.92a.58.58,0,0,0,.59-.59V147.6a.58.58,0,0,0-.59-.59Z" style="fill:#263238"></path><rect x="362.65" y="148.08" width="2" height="0.87" style="fill:#263238"></rect><rect x="370.07" y="148.08" width="7.5" height="0.87" style="fill:#263238"></rect><polygon points="340.65 409.7 333.49 408.71 334.48 391.21 341.63 392.2 340.65 409.7" style="fill:#ebb376"></polygon><polygon points="341.63 392.2 334.48 391.22 333.87 402.06 341.08 402.06 341.63 392.2" style="isolation:isolate;opacity:0.2"></polygon><path d="M333,407.85l8.09-.5a.51.51,0,0,1,.56.45h0l.79,6.38a1.26,1.26,0,0,1-1.17,1.35c-2.83.13-4.19,0-7.75.25a67.32,67.32,0,0,1-9.5.3c-3-.29-2.65-3.26-1.34-3.41,3.08-.35,7.17-2.62,9.1-4.34A2.09,2.09,0,0,1,333,407.85Z" style="fill:#263238"></path><path d="M332.77,408.73h0c0-.13-.12-2.17-.87-2.82a1,1,0,0,0-.8-.19.7.7,0,0,0-.62.55,2.57,2.57,0,0,0,.72,1.65,3,3,0,0,0-2-.37.67.67,0,0,0-.36.5.9.9,0,0,0,.26.93,2,2,0,0,0,1.38.27,8.59,8.59,0,0,0,1.88-.38.07.07,0,0,0,.06,0s0,0,0-.05.17,0,.18-.07l.15,0Zm-2-2.4c0-.1.06-.22.3-.26h.08a.51.51,0,0,1,.37.13,3.67,3.67,0,0,1,.61,2.21l-.15-.09A3.36,3.36,0,0,1,330.79,406.33Zm-1.48,2.38a.64.64,0,0,1-.16-.59.3.3,0,0,1,.18-.24c.46-.22,1.69.31,2.56.79C330.62,409,329.67,409,329.31,408.71Z" style="fill:#7E57C2"></path><path d="M375,247.28v27.11c-8.61,22.3-21.72,59.12-24,71.18s-1.69,26.73-5.74,53.41l-14.1.32s-1-30.48,1.1-52.86,19.31-99.16,19.31-99.16Z" style="fill:#7E57C2"></path><path d="M375,247.28v27.11c-8.61,22.3-21.72,59.12-24,71.18s-1.69,26.73-5.74,53.41l-14.1.32s-1-30.48,1.1-52.86,19.31-99.16,19.31-99.16Z" style="fill:#fff;opacity:0.4"></path><path d="M361.28,311.74s1.35-12.5,1.71-17.58S366.8,275,366.8,275l.59,19.75Z" style="opacity:0.2"></path><polygon points="393.36 409.7 386.2 408.71 385.21 391.7 392.36 392.69 393.36 409.7" style="fill:#ebb376"></polygon><polygon points="392.36 392.69 385.21 391.7 385.82 402.06 392.92 402.06 392.36 392.69" style="isolation:isolate;opacity:0.2"></polygon><path d="M385.66,407.85l8.09-.5a.52.52,0,0,1,.57.45h0l.79,6.38a1.27,1.27,0,0,1-1.18,1.35c-2.82.13-4.18,0-7.74.25a67.32,67.32,0,0,1-9.5.3c-3-.29-2.65-3.26-1.35-3.41,3.09-.35,7.18-2.62,9.11-4.34A2.09,2.09,0,0,1,385.66,407.85Z" style="fill:#263238"></path><path d="M385.49,408.73h0c0-.13-.12-2.17-.87-2.82a1.07,1.07,0,0,0-.81-.19.7.7,0,0,0-.61.55,2.61,2.61,0,0,0,.71,1.65,2.94,2.94,0,0,0-2-.37.63.63,0,0,0-.36.5.9.9,0,0,0,.26.93,2,2,0,0,0,1.37.27,8.8,8.8,0,0,0,1.89-.38.07.07,0,0,0,.06,0l0-.05s.17,0,.18-.07l.15,0Zm-2-2.4c0-.1.07-.22.3-.26h.09a.49.49,0,0,1,.36.13,3.54,3.54,0,0,1,.61,2.21l-.14-.09A3.39,3.39,0,0,1,383.5,406.33ZM382,408.71a.64.64,0,0,1-.16-.59.3.3,0,0,1,.18-.24c.46-.22,1.69.31,2.56.79C383.34,409,382.39,409,382,408.71Z" style="fill:#7E57C2"></path><path d="M392.83,247.28c1.64,12-4,92.42-2.62,103.61s3.09,21.34,4.9,48.41H381.84s-6.92-25.65-10.48-48.12-5.6-82-3.25-103.9Z" style="fill:#7E57C2"></path><path d="M392.83,247.28c1.64,12-4,92.42-2.62,103.61s3.09,21.34,4.9,48.41H381.84s-6.92-25.65-10.48-48.12-5.6-82-3.25-103.9Z" style="fill:#fff;opacity:0.4"></path><path d="M350.55,176.91s-8.67,9.79-.48,70.37h43.54c.3-6.68-3.9-39.29,2.55-70.79a115,115,0,0,0-14.58-1.84,163.16,163.16,0,0,0-18.51,0A81.79,81.79,0,0,0,350.55,176.91Z" style="fill:#263238"></path><path d="M392.71,209.4c-.55-5.24-.86-13.07-1.79-17.47a47.9,47.9,0,0,0,2.45,4.26" style="opacity:0.2"></path><path d="M380.73,177.39H368.65a2.22,2.22,0,0,1-2.22-2.22v-.78a159.12,159.12,0,0,1,16.47.3v.44A2.18,2.18,0,0,1,380.73,177.39Z" style="opacity:0.2"></path><path d="M392.65,210.29c-2.92,4.13-8.57,6.73-15.15,8.82l-.88,7,3.52-.35.2.92a34,34,0,0,0,12.31-2.16Z" style="opacity:0.2"></path><rect x="367.06" y="169.84" width="15.17" height="7.08" rx="1.95" style="fill:#263238"></rect><path d="M366,218l2.57-1.48a3.47,3.47,0,0,1,3.15-.15l4.74,2.17a6.42,6.42,0,0,1,3.64,4.63l.24,1.27c-4.09,2.74-10.53,2.7-10.53,2.7l-1.84.19a2.86,2.86,0,0,1-3.22-2.5l-.43-3.64A3.32,3.32,0,0,1,366,218Z" style="fill:#e6ae76"></path><path d="M397.38,181.53l.28.29.21.21.36.4c.24.27.46.52.67.78q.63.78,1.2,1.56a37.81,37.81,0,0,1,2.09,3.18,48.84,48.84,0,0,1,3.3,6.64c.47,1.13.9,2.28,1.3,3.42s.75,2.32,1.06,3.48a64.34,64.34,0,0,1,1.55,7l.05.29a4.08,4.08,0,0,1,.05.69,9.78,9.78,0,0,1-.88,3.74,11.2,11.2,0,0,1-1.83,2.77,17.55,17.55,0,0,1-4.2,3.31,29.69,29.69,0,0,1-4.18,2c-1.38.54-2.76,1-4.14,1.39s-2.75.73-4.12,1-2.74.54-4.11.76-2.74.39-4.12.55l-2.06.19c-.7.05-1.37.1-2.11.13a2.56,2.56,0,0,1-.8-5l.07,0,1.87-.52,1.88-.56c1.26-.37,2.5-.76,3.74-1.16s2.46-.83,3.66-1.27,2.39-.91,3.54-1.41,2.28-1,3.34-1.56a26,26,0,0,0,2.92-1.78,8.76,8.76,0,0,0,1.95-1.83,1.87,1.87,0,0,0,.31-.6c0-.13,0-.15,0-.17l.1,1c-.52-2.05-1.15-4.05-1.83-6-.33-1-.71-1.95-1.1-2.91s-.79-1.91-1.22-2.84c-.22-.46-.44-.92-.67-1.38s-.45-.91-.69-1.36c-.47-.89-1-1.76-1.49-2.62s-1.07-1.67-1.62-2.46c-.28-.39-.56-.77-.84-1.13-.14-.18-.28-.36-.42-.52l-.19-.23-.08-.09,0,0h0l0,0a5.14,5.14,0,1,1,7.24-7.31Z" style="fill:#e6ae76"></path><path d="M379,219.09c8.81-2.49,15.62-5.61,20.78-9.51-1.48-5.45-8.58-17.22-9.75-19.27s-3.23-6.45-.83-11.19c3.19-6.29,10.52-.31,10.52-.31,4.61,7.29,12.78,28.39,12.48,31.66.09,9.84-14.41,12.54-31,15.28Z" style="fill:#263238"></path></g><g id="freepik--character-1--inject-62"><path d="M87.75,176.22c-.24,7-1.68,14-2,18.87-.31,4.69-8.22,26.47-8.19,31.9,0,5,10,14.91,10,14.91,3.21-4.51,5.19-7.84,4.75-11.34,1.39,3.84.79,7.61-1.52,11.34,0,0,12.48-1.18,16.71-2.56s9.52-2.75,13.71-11.81-5-35.82-5-35.82l3,5.34c5.31-16.38.15-25.43-6.21-33.65Z" style="fill:#263238"></path><path d="M122.84,198.31c5.79,6.28,11.44,12.75,17,19.24l2.09,2.45a2.82,2.82,0,0,1,.29.35c0,.08.16.15.22.23a7.24,7.24,0,0,0,.67.51,14.14,14.14,0,0,0,4.65,1.55,43.17,43.17,0,0,0,5.85.61c1,0,2,.08,3.07.09s2.09,0,3.05,0h.14a2.48,2.48,0,0,1,.85,4.83c-1.15.4-2.2.69-3.31,1s-2.21.53-3.34.71a36.56,36.56,0,0,1-7,.58,20.35,20.35,0,0,1-7.79-1.53,12.75,12.75,0,0,1-2.08-1.16,10.72,10.72,0,0,1-1-.79c-.32-.28-.71-.65-.84-.79L133,223.83c-6.06-6.13-12-12.38-17.63-18.89a5,5,0,0,1,7.41-6.65Z" style="fill:#ffb573"></path><path d="M169.66,219.9l-2.36-.66a2.86,2.86,0,0,0-2.57.52l-3.36,2.72a5.32,5.32,0,0,0-2,4.47l.06,1.07c3.85,1.36,9,0,9,0l1.51-.22a2.38,2.38,0,0,0,2.08-2.67l-.4-3A2.74,2.74,0,0,0,169.66,219.9Z" style="fill:#ffb573"></path><path d="M126,216.63l5.09,5.18-1.46-3.37c.52-2.35-2.11-7.42-4.31-10Z" style="opacity:0.2"></path><path d="M179.09,206.37H158a2,2,0,0,0-2,1.8l-1.17,12a2,2,0,0,0,2,2.19h21.13a2,2,0,0,0,2-1.8l1.17-12A2,2,0,0,0,179.09,206.37Z" style="fill:#263238"></path><path d="M177.83,206.33H156.7a2,2,0,0,0-2,1.81l-1.17,12a2,2,0,0,0,2,2.2h21.13a2,2,0,0,0,2-1.81l1.17-12A2,2,0,0,0,177.83,206.33Z" style="fill:#7E57C2"></path><path d="M177.83,206.33H156.7a2,2,0,0,0-2,1.81l-1.17,12a2,2,0,0,0,2,2.2h21.13a2,2,0,0,0,2-1.81l1.17-12A2,2,0,0,0,177.83,206.33Z" style="fill:#fff;opacity:0.1"></path><polygon points="174.22 206.33 160.23 206.33 158.67 222.31 172.66 222.31 174.22 206.33" style="fill:#fff;opacity:0.5"></polygon><path d="M156.28,220.07c0,.45-.27.82-.6.82s-.6-.37-.6-.82.27-.82.6-.82S156.28,219.62,156.28,220.07Z" style="fill:#263238"></path><path d="M156.14,220.07c0,.45-.27.82-.6.82s-.6-.37-.6-.82.27-.82.6-.82S156.14,219.62,156.14,220.07Z" style="fill:#7E57C2"></path><path d="M156.14,220.07c0,.45-.27.82-.6.82s-.6-.37-.6-.82.27-.82.6-.82S156.14,219.62,156.14,220.07Z" style="opacity:0.5"></path><path d="M157.86,220.07c0,.45-.27.82-.6.82s-.6-.37-.6-.82.27-.82.6-.82S157.86,219.62,157.86,220.07Z" style="fill:#263238"></path><path d="M157.72,220.07c0,.45-.27.82-.6.82s-.6-.37-.6-.82.27-.82.6-.82S157.72,219.62,157.72,220.07Z" style="fill:#7E57C2"></path><path d="M157.72,220.07c0,.45-.27.82-.6.82s-.6-.37-.6-.82.27-.82.6-.82S157.72,219.62,157.72,220.07Z" style="opacity:0.4"></path><path d="M175.2,220.06c0,.44-.27.81-.59.81s-.59-.37-.59-.81.26-.81.59-.81S175.2,219.61,175.2,220.06Z" style="fill:#263238"></path><path d="M175.06,220.06c0,.44-.26.81-.59.81s-.59-.37-.59-.81.26-.81.59-.81S175.06,219.61,175.06,220.06Z" style="fill:#7E57C2"></path><path d="M175.06,220.06c0,.44-.26.81-.59.81s-.59-.37-.59-.81.26-.81.59-.81S175.06,219.61,175.06,220.06Z" style="opacity:0.30000000000000004"></path><path d="M176.75,220.06c0,.44-.26.81-.59.81s-.59-.37-.59-.81.27-.81.59-.81S176.75,219.61,176.75,220.06Z" style="fill:#263238"></path><path d="M176.62,220.06c0,.44-.27.81-.59.81s-.59-.37-.59-.81.26-.81.59-.81S176.62,219.61,176.62,220.06Z" style="fill:#7E57C2"></path><path d="M176.62,220.06c0,.44-.27.81-.59.81s-.59-.37-.59-.81.26-.81.59-.81S176.62,219.61,176.62,220.06Z" style="opacity:0.2"></path><path d="M176.23,210.57c0,.52-.31.94-.69.94s-.69-.42-.69-.94.31-.93.69-.93S176.23,210.06,176.23,210.57Z" style="fill:#263238"></path><path d="M176.07,210.57c0,.52-.31.94-.69.94s-.69-.42-.69-.94.31-.93.69-.93S176.07,210.06,176.07,210.57Z" style="fill:#7E57C2"></path><path d="M176.07,210.57c0,.52-.31.94-.69.94s-.69-.42-.69-.94.31-.93.69-.93S176.07,210.06,176.07,210.57Z" style="fill:#fff;opacity:0.2"></path><path d="M176.23,213.1c0,.52-.31.94-.69.94s-.69-.42-.69-.94.31-.94.69-.94S176.23,212.58,176.23,213.1Z" style="fill:#263238"></path><path d="M176.07,213.1c0,.52-.31.94-.69.94s-.69-.42-.69-.94.31-.94.69-.94S176.07,212.58,176.07,213.1Z" style="fill:#7E57C2"></path><path d="M176.07,213.1c0,.52-.31.94-.69.94s-.69-.42-.69-.94.31-.94.69-.94S176.07,212.58,176.07,213.1Z" style="fill:#fff;opacity:0.5"></path><path d="M178.41,213.1c0,.52-.3.94-.68.94s-.69-.42-.69-.94.31-.94.69-.94S178.41,212.58,178.41,213.1Z" style="fill:#263238"></path><path d="M178.25,213.1c0,.52-.3.94-.68.94s-.69-.42-.69-.94.31-.94.69-.94S178.25,212.58,178.25,213.1Z" style="fill:#7E57C2"></path><path d="M178.25,213.1c0,.52-.3.94-.68.94s-.69-.42-.69-.94.31-.94.69-.94S178.25,212.58,178.25,213.1Z" style="fill:#fff;opacity:0.30000000000000004"></path><path d="M178.41,210.57c0,.52-.3.94-.68.94s-.69-.42-.69-.94.31-.93.69-.93S178.41,210.06,178.41,210.57Z" style="fill:#263238"></path><ellipse cx="177.57" cy="210.57" rx="0.69" ry="0.94" style="fill:#7E57C2"></ellipse><ellipse cx="177.57" cy="210.57" rx="0.69" ry="0.94" style="fill:#fff;opacity:0.4"></ellipse><polygon points="158.65 211.55 157.7 211.55 157.83 210.35 156.39 210.35 156.25 211.55 155.29 211.55 155.16 212.84 156.1 212.84 155.97 213.98 157.42 213.98 157.55 212.84 158.52 212.84 158.65 211.55" style="fill:#263238"></polygon><polygon points="158.44 211.55 157.49 211.55 157.62 210.35 156.18 210.35 156.04 211.55 155.08 211.55 154.94 212.84 155.9 212.84 155.76 213.98 157.21 213.98 157.34 212.84 158.31 212.84 158.44 211.55" style="fill:#7E57C2"></polygon><path d="M157,212.19c0,.22-.13.4-.29.4s-.29-.18-.29-.4.13-.39.29-.39S157,212,157,212.19Z" style="opacity:0.4"></path><polygon points="155.22 212.19 155.95 211.86 155.72 212.19 155.83 212.52 155.22 212.19" style="opacity:0.5"></polygon><polygon points="158.14 212.19 157.42 212.52 157.64 212.19 157.54 211.86 158.14 212.19" style="opacity:0.5"></polygon><polygon points="156.82 210.68 156.43 211.44 156.76 211.29 157.15 211.45 156.82 210.68" style="opacity:0.5"></polygon><polygon points="156.51 213.69 156.9 212.94 156.57 213.09 156.19 212.92 156.51 213.69" style="opacity:0.5"></polygon><polygon points="158.44 211.55 157.49 211.55 157.62 210.35 156.18 210.35 156.04 211.55 155.08 211.55 154.94 212.84 155.9 212.84 155.76 213.98 157.21 213.98 157.34 212.84 158.31 212.84 158.44 211.55" style="opacity:0.05"></polygon><path d="M156.66,216.41a.11.11,0,0,1-.12.11.11.11,0,0,1,0-.22A.11.11,0,0,1,156.66,216.41Z"></path><path d="M156.09,216.41a.1.1,0,0,1-.11.11.11.11,0,0,1,0-.22A.1.1,0,0,1,156.09,216.41Z"></path><path d="M155.53,216.41a.11.11,0,1,1-.11-.11A.11.11,0,0,1,155.53,216.41Z"></path><path d="M157.22,216.41a.11.11,0,0,1-.12.11.11.11,0,0,1,0-.22A.11.11,0,0,1,157.22,216.41Z"></path><path d="M157.78,216.41a.11.11,0,0,1-.11.11.11.11,0,1,1,0-.22A.11.11,0,0,1,157.78,216.41Z"></path><circle cx="156.54" cy="215.85" r="0.11"></circle><circle cx="156.54" cy="215.29" r="0.11"></circle><path d="M156.54,217.08a.11.11,0,0,1,0-.22.11.11,0,1,1,0,.22Z"></path><circle cx="156.54" cy="217.53" r="0.11"></circle><circle cx="156.15" cy="216.02" r="0.11"></circle><path d="M155.83,215.7a.11.11,0,1,1,0-.16A.12.12,0,0,1,155.83,215.7Z"></path><circle cx="156.94" cy="216.81" r="0.11"></circle><circle cx="157.34" cy="217.2" r="0.11"></circle><circle cx="156.15" cy="216.81" r="0.11"></circle><path d="M155.83,217.13a.11.11,0,0,1,0,.15.1.1,0,0,1-.16,0,.11.11,0,0,1,0-.15A.1.1,0,0,1,155.83,217.13Z"></path><circle cx="156.94" cy="216.02" r="0.11"></circle><circle cx="157.34" cy="215.62" r="0.11"></circle><circle cx="176.23" cy="216.52" r="0.11"></circle><circle cx="175.67" cy="216.52" r="0.11"></circle><circle cx="175.11" cy="216.52" r="0.11"></circle><circle cx="176.79" cy="216.52" r="0.11"></circle><circle cx="177.35" cy="216.52" r="0.11"></circle><circle cx="176.23" cy="215.96" r="0.11"></circle><circle cx="176.23" cy="215.4" r="0.11"></circle><path d="M176.23,217.19a.11.11,0,1,1,.11-.11A.11.11,0,0,1,176.23,217.19Z"></path><path d="M176.23,217.75a.1.1,0,0,1-.11-.11.11.11,0,1,1,.22,0A.1.1,0,0,1,176.23,217.75Z"></path><circle cx="175.83" cy="216.13" r="0.11"></circle><path d="M175.52,215.81a.11.11,0,1,1,0-.16A.12.12,0,0,1,175.52,215.81Z"></path><path d="M176.71,217a.12.12,0,0,1-.16,0,.1.1,0,0,1,0-.16.11.11,0,0,1,.16.16Z"></path><circle cx="177.02" cy="217.32" r="0.11"></circle><circle cx="175.83" cy="216.92" r="0.11"></circle><path d="M175.52,217.24a.11.11,0,0,1,0,.15.1.1,0,0,1-.16,0,.11.11,0,0,1,0-.15A.1.1,0,0,1,175.52,217.24Z"></path><path d="M176.71,216.05a.11.11,0,0,1,0,.15.1.1,0,0,1-.16,0,.09.09,0,0,1,0-.15A.1.1,0,0,1,176.71,216.05Z"></path><circle cx="177.02" cy="215.73" r="0.11"></circle><polygon points="158.41 206.9 158.32 207.79 159.76 207.79 159.85 206.9 158.41 206.9" style="fill:#263238"></polygon><polygon points="158.41 206.9 158.32 207.79 159.76 207.79 159.85 206.9 158.41 206.9" style="fill:#fff;opacity:0.5"></polygon><polygon points="156.61 206.9 156.52 207.79 157.96 207.79 158.05 206.9 156.61 206.9" style="fill:#263238"></polygon><polygon points="156.61 206.9 156.52 207.79 157.96 207.79 158.05 206.9 156.61 206.9" style="fill:#fff;opacity:0.4"></polygon><polygon points="176.33 206.9 176.24 207.79 177.68 207.79 177.77 206.9 176.33 206.9" style="fill:#263238"></polygon><polygon points="176.33 206.9 176.24 207.79 177.68 207.79 177.77 206.9 176.33 206.9" style="fill:#fff;opacity:0.2"></polygon><polygon points="174.53 206.9 174.44 207.79 175.88 207.79 175.97 206.9 174.53 206.9" style="fill:#263238"></polygon><polygon points="174.53 206.9 174.44 207.79 175.88 207.79 175.97 206.9 174.53 206.9" style="fill:#fff;opacity:0.30000000000000004"></polygon><polygon points="173.79 206.74 160.5 206.74 158.94 221.98 172.23 221.98 173.79 206.74" style="fill:#7E57C2"></polygon><path d="M161.9,210.5l-.1,1.41a.27.27,0,0,0,.27.29h1a.27.27,0,0,0,.27-.25l.1-1.42a.28.28,0,0,0-.28-.29h-1A.26.26,0,0,0,161.9,210.5Z" style="fill:#7E57C2"></path><path d="M161.9,210.5l-.1,1.41a.27.27,0,0,0,.27.29h1a.27.27,0,0,0,.27-.25l.1-1.42a.28.28,0,0,0-.28-.29h-1A.26.26,0,0,0,161.9,210.5Z" style="fill:#fff;opacity:0.30000000000000004"></path><polygon points="162.53 211.06 162.48 211.8 163.07 211.8 163.12 211.06 162.53 211.06" style="fill:#7E57C2"></polygon><polygon points="162.21 210.69 162.16 211.43 162.75 211.43 162.8 210.69 162.21 210.69" style="fill:#7E57C2"></polygon><path d="M164.64,210.5l-.09,1.41a.27.27,0,0,0,.27.29h1a.27.27,0,0,0,.27-.25l.1-1.42a.28.28,0,0,0-.28-.29h-1A.28.28,0,0,0,164.64,210.5Z" style="fill:#7E57C2"></path><path d="M164.64,210.5l-.09,1.41a.27.27,0,0,0,.27.29h1a.27.27,0,0,0,.27-.25l.1-1.42a.28.28,0,0,0-.28-.29h-1A.28.28,0,0,0,164.64,210.5Z" style="fill:#fff;opacity:0.30000000000000004"></path><polygon points="165.28 211.06 165.23 211.8 165.82 211.8 165.87 211.06 165.28 211.06" style="fill:#7E57C2"></polygon><polygon points="164.95 210.69 164.9 211.43 165.5 211.43 165.55 210.69 164.95 210.69" style="fill:#7E57C2"></polygon><path d="M167.43,210.5l-.1,1.41a.28.28,0,0,0,.28.29h1a.27.27,0,0,0,.28-.25l.09-1.42a.27.27,0,0,0-.27-.29h-1A.27.27,0,0,0,167.43,210.5Z" style="fill:#7E57C2"></path><path d="M167.43,210.5l-.1,1.41a.28.28,0,0,0,.28.29h1a.27.27,0,0,0,.28-.25l.09-1.42a.27.27,0,0,0-.27-.29h-1A.27.27,0,0,0,167.43,210.5Z" style="fill:#fff;opacity:0.30000000000000004"></path><polygon points="168.06 211.06 168.01 211.8 168.61 211.8 168.66 211.06 168.06 211.06" style="fill:#7E57C2"></polygon><polygon points="167.74 210.69 167.69 211.43 168.28 211.43 168.34 210.69 167.74 210.69" style="fill:#7E57C2"></polygon><path d="M170.2,210.5l-.09,1.41a.27.27,0,0,0,.27.29h1a.27.27,0,0,0,.27-.25l.1-1.42a.28.28,0,0,0-.28-.29h-1A.28.28,0,0,0,170.2,210.5Z" style="fill:#7E57C2"></path><path d="M170.2,210.5l-.09,1.41a.27.27,0,0,0,.27.29h1a.27.27,0,0,0,.27-.25l.1-1.42a.28.28,0,0,0-.28-.29h-1A.28.28,0,0,0,170.2,210.5Z" style="fill:#fff;opacity:0.30000000000000004"></path><polygon points="170.84 211.06 170.78 211.8 171.38 211.8 171.43 211.06 170.84 211.06" style="fill:#7E57C2"></polygon><polygon points="170.51 210.69 170.46 211.43 171.06 211.43 171.11 210.69 170.51 210.69" style="fill:#7E57C2"></polygon><path d="M161.32,214.09l-.09,1.41a.27.27,0,0,0,.27.29h1a.27.27,0,0,0,.27-.25l.1-1.42a.28.28,0,0,0-.28-.29h-1A.28.28,0,0,0,161.32,214.09Z" style="fill:#7E57C2"></path><path d="M161.32,214.09l-.09,1.41a.27.27,0,0,0,.27.29h1a.27.27,0,0,0,.27-.25l.1-1.42a.28.28,0,0,0-.28-.29h-1A.28.28,0,0,0,161.32,214.09Z" style="fill:#fff;opacity:0.30000000000000004"></path><polygon points="161.96 214.65 161.91 215.39 162.5 215.39 162.55 214.65 161.96 214.65" style="fill:#7E57C2"></polygon><polygon points="161.63 214.28 161.58 215.02 162.18 215.02 162.23 214.28 161.63 214.28" style="fill:#7E57C2"></polygon><path d="M164.07,214.09,164,215.5a.27.27,0,0,0,.27.29h1a.27.27,0,0,0,.27-.25l.09-1.42a.26.26,0,0,0-.27-.29h-1A.27.27,0,0,0,164.07,214.09Z" style="fill:#7E57C2"></path><path d="M164.07,214.09,164,215.5a.27.27,0,0,0,.27.29h1a.27.27,0,0,0,.27-.25l.09-1.42a.26.26,0,0,0-.27-.29h-1A.27.27,0,0,0,164.07,214.09Z" style="fill:#fff;opacity:0.30000000000000004"></path><polygon points="164.7 214.65 164.65 215.39 165.25 215.39 165.3 214.65 164.7 214.65" style="fill:#7E57C2"></polygon><polygon points="164.38 214.28 164.33 215.02 164.93 215.02 164.98 214.28 164.38 214.28" style="fill:#7E57C2"></polygon><path d="M166.86,214.09l-.1,1.41a.28.28,0,0,0,.28.29h1a.27.27,0,0,0,.28-.25l.09-1.42a.27.27,0,0,0-.27-.29h-1A.27.27,0,0,0,166.86,214.09Z" style="fill:#7E57C2"></path><path d="M166.86,214.09l-.1,1.41a.28.28,0,0,0,.28.29h1a.27.27,0,0,0,.28-.25l.09-1.42a.27.27,0,0,0-.27-.29h-1A.27.27,0,0,0,166.86,214.09Z" style="fill:#fff;opacity:0.30000000000000004"></path><polygon points="167.49 214.65 167.44 215.39 168.04 215.39 168.09 214.65 167.49 214.65" style="fill:#7E57C2"></polygon><polygon points="167.17 214.28 167.12 215.02 167.71 215.02 167.76 214.28 167.17 214.28" style="fill:#7E57C2"></polygon><path d="M169.63,214.09l-.09,1.41a.27.27,0,0,0,.27.29h1a.27.27,0,0,0,.27-.25l.09-1.42a.27.27,0,0,0-.27-.29h-1A.27.27,0,0,0,169.63,214.09Z" style="fill:#7E57C2"></path><path d="M169.63,214.09l-.09,1.41a.27.27,0,0,0,.27.29h1a.27.27,0,0,0,.27-.25l.09-1.42a.27.27,0,0,0-.27-.29h-1A.27.27,0,0,0,169.63,214.09Z" style="fill:#fff;opacity:0.30000000000000004"></path><polygon points="170.26 214.65 170.21 215.39 170.81 215.39 170.86 214.65 170.26 214.65" style="fill:#7E57C2"></polygon><polygon points="169.94 214.28 169.89 215.02 170.49 215.02 170.54 214.28 169.94 214.28" style="fill:#7E57C2"></polygon><path d="M160.75,217.9l-.09,1.41a.27.27,0,0,0,.27.29h1a.27.27,0,0,0,.27-.25l.1-1.41a.28.28,0,0,0-.28-.3h-1A.28.28,0,0,0,160.75,217.9Z" style="fill:#7E57C2"></path><path d="M160.75,217.9l-.09,1.41a.27.27,0,0,0,.27.29h1a.27.27,0,0,0,.27-.25l.1-1.41a.28.28,0,0,0-.28-.3h-1A.28.28,0,0,0,160.75,217.9Z" style="fill:#fff;opacity:0.30000000000000004"></path><polygon points="161.38 218.46 161.34 219.2 161.93 219.2 161.98 218.46 161.38 218.46" style="fill:#7E57C2"></polygon><polygon points="161.06 218.09 161.01 218.83 161.61 218.83 161.66 218.09 161.06 218.09" style="fill:#7E57C2"></polygon><path d="M163.5,217.9l-.1,1.41a.28.28,0,0,0,.28.29h1a.27.27,0,0,0,.28-.25l.09-1.41a.28.28,0,0,0-.27-.3h-1A.27.27,0,0,0,163.5,217.9Z" style="fill:#7E57C2"></path><path d="M163.5,217.9l-.1,1.41a.28.28,0,0,0,.28.29h1a.27.27,0,0,0,.28-.25l.09-1.41a.28.28,0,0,0-.27-.3h-1A.27.27,0,0,0,163.5,217.9Z" style="fill:#fff;opacity:0.30000000000000004"></path><polygon points="164.13 218.46 164.08 219.2 164.68 219.2 164.73 218.46 164.13 218.46" style="fill:#7E57C2"></polygon><polygon points="163.81 218.09 163.76 218.83 164.35 218.83 164.41 218.09 163.81 218.09" style="fill:#7E57C2"></polygon><path d="M166.29,217.9l-.1,1.41a.28.28,0,0,0,.28.29h1a.26.26,0,0,0,.27-.25l.1-1.41a.28.28,0,0,0-.27-.3h-1A.27.27,0,0,0,166.29,217.9Z" style="fill:#7E57C2"></path><path d="M166.29,217.9l-.1,1.41a.28.28,0,0,0,.28.29h1a.26.26,0,0,0,.27-.25l.1-1.41a.28.28,0,0,0-.27-.3h-1A.27.27,0,0,0,166.29,217.9Z" style="fill:#fff;opacity:0.30000000000000004"></path><polygon points="166.92 218.46 166.87 219.2 167.46 219.2 167.51 218.46 166.92 218.46" style="fill:#7E57C2"></polygon><polygon points="166.6 218.09 166.55 218.83 167.14 218.83 167.19 218.09 166.6 218.09" style="fill:#7E57C2"></polygon><path d="M169.06,217.9l-.1,1.41a.28.28,0,0,0,.28.29h1a.27.27,0,0,0,.28-.25l.09-1.41a.28.28,0,0,0-.27-.3h-1A.27.27,0,0,0,169.06,217.9Z" style="fill:#7E57C2"></path><path d="M169.06,217.9l-.1,1.41a.28.28,0,0,0,.28.29h1a.27.27,0,0,0,.28-.25l.09-1.41a.28.28,0,0,0-.27-.3h-1A.27.27,0,0,0,169.06,217.9Z" style="fill:#fff;opacity:0.30000000000000004"></path><polygon points="169.69 218.46 169.64 219.2 170.24 219.2 170.29 218.46 169.69 218.46" style="fill:#7E57C2"></polygon><polygon points="169.37 218.09 169.32 218.83 169.91 218.83 169.97 218.09 169.37 218.09" style="fill:#7E57C2"></polygon><polygon points="168.66 208.21 169.04 208.21 169.08 207.83 168.7 207.83 168.66 208.21" style="fill:#7E57C2"></polygon><polygon points="169.45 207.83 169.42 208.21 169.8 208.21 169.83 207.83 169.87 207.45 169.49 207.45 169.45 207.83" style="fill:#7E57C2"></polygon><polygon points="170.28 207.07 170.24 207.45 170.21 207.83 170.18 208.21 170.56 208.21 170.59 207.83 170.62 207.45 170.66 207.07 170.28 207.07" style="fill:#7E57C2"></polygon><g style="opacity:0.4"><polygon points="168.66 208.21 169.04 208.21 169.08 207.83 168.7 207.83 168.66 208.21" style="fill:#fff"></polygon><polygon points="169.45 207.83 169.42 208.21 169.8 208.21 169.83 207.83 169.87 207.45 169.49 207.45 169.45 207.83" style="fill:#fff"></polygon><polygon points="170.28 207.07 170.24 207.45 170.21 207.83 170.18 208.21 170.56 208.21 170.59 207.83 170.62 207.45 170.66 207.07 170.28 207.07" style="fill:#fff"></polygon></g><path d="M171.69,207.07l0,.28h-.18l0,.55h.19l0,.28h1.67l.09-1.11Zm.67.83h-.56l0-.55h.55Z" style="fill:#7E57C2"></path><path d="M171.69,207.07l0,.28h-.18l0,.55h.19l0,.28h1.67l.09-1.11Zm.67.83h-.56l0-.55h.55Z" style="fill:#fff;opacity:0.7000000000000001"></path><path d="M167.87,208a.17.17,0,0,1-.17.16.16.16,0,0,1-.16-.16.16.16,0,0,1,.16-.17A.17.17,0,0,1,167.87,208Z" style="fill:#7E57C2"></path><path d="M167.7,207.23a.76.76,0,0,1,.68.4l.16-.12a1,1,0,0,0-1.7.05l.17.11A.77.77,0,0,1,167.7,207.23Z" style="fill:#7E57C2"></path><path d="M167.7,207.5a.49.49,0,0,1,.46.3l.16-.12a.69.69,0,0,0-1.25,0l.17.1A.49.49,0,0,1,167.7,207.5Z" style="fill:#7E57C2"></path><path d="M167.7,207.76a.25.25,0,0,1,.24.2l.17-.12a.45.45,0,0,0-.41-.28.43.43,0,0,0-.41.29l.18.11A.24.24,0,0,1,167.7,207.76Z" style="fill:#7E57C2"></path><g style="opacity:0.7000000000000001"><path d="M167.87,208a.17.17,0,0,1-.17.16.16.16,0,0,1-.16-.16.16.16,0,0,1,.16-.17A.17.17,0,0,1,167.87,208Z" style="fill:#fff"></path></g><path d="M167.7,207.23a.76.76,0,0,1,.68.4l.16-.12a1,1,0,0,0-1.7.05l.17.11A.77.77,0,0,1,167.7,207.23Z" style="fill:#fff;opacity:0.7000000000000001"></path><path d="M167.7,207.5a.49.49,0,0,1,.46.3l.16-.12a.69.69,0,0,0-1.25,0l.17.1A.49.49,0,0,1,167.7,207.5Z" style="fill:#fff;opacity:0.7000000000000001"></path><path d="M167.7,207.76a.25.25,0,0,1,.24.2l.17-.12a.45.45,0,0,0-.41-.28.43.43,0,0,0-.41.29l.18.11A.24.24,0,0,1,167.7,207.76Z" style="fill:#fff;opacity:0.7000000000000001"></path><polygon points="173.79 206.74 160.5 206.74 158.94 221.98 172.23 221.98 173.79 206.74" style="fill:#fff;opacity:0.1"></polygon><path d="M161,222.83s4.44-3.56,4.89-4,.6,3-.8,4.28S161,222.83,161,222.83Z" style="fill:#ffb573"></path><path d="M124,204.46c1.16,7.06,7.43,10,1.93,16.31.63,6.15,2,17.13,1.75,27.34-1.5,3-16.55,5.1-31.83,4,.52-8.79-1.67-22.91-9.86-41.2a7.81,7.81,0,0,1,4.71-10.63c1.18-.38,2.43-.77,3.73-1.11a98,98,0,0,1,13.72-3c1.52-.18,3.09-.33,4.6-.45A10.58,10.58,0,0,1,124,204.46Z" style="fill:#7E57C2"></path><polygon points="91.62 212.19 90.38 221.43 87.25 214.18 91.62 212.19" style="opacity:0.2"></polygon><path d="M92.81,163c2.45-5.62,16.84-6.33,19.89-1.19,3.9,6.56,11.49,13,9.71,22.43a6.76,6.76,0,0,0-1.24-2.62s1.45,8.1-6.32,10.55-16.5,2.25-19.7.76c-1-1.12-.92-3.6-.92-3.6a4.2,4.2,0,0,0-.29,3.21c-1.55-1.38-6.88-1.2-6.4-10.4C88,174,87.33,162.08,92.81,163Z" style="fill:#263238"></path><path d="M95.85,181.72c1.6,5,3.71,14.22.57,17.75,0,0-2.17,4.55,11.19,3.54,1.29,2.73,8.52,5.62,9.47,12.77,1.81-7.31-5.79-11-6.81-13,8.57-1.13,1.9-4,1.9-4-5.82-1.09-6.17-5.28-5.66-9.25Z" style="fill:#ffb573"></path><path d="M100.2,184.9l6.31,4.61a15.69,15.69,0,0,0-.16,2.81c-2.19-.22-5.44-2.44-5.94-4.69A7.57,7.57,0,0,1,100.2,184.9Z" style="opacity:0.2"></path><path d="M91.66,173.59c1.78,7.59,2.37,10.83,6.9,14.3,6.82,5.22,15.71,1.9,16.22-5.94.46-7.06-2.53-18.28-10.53-20.45A10,10,0,0,0,91.66,173.59Z" style="fill:#ffb573"></path><path d="M98,167.77c-4,5.63,5,11.51-3.71,11.54s-5.72-12.38-.7-15.39S98,167.77,98,167.77Z" style="fill:#263238"></path><path d="M103.83,174.32c.13.64.56,1.12,1,1.07s.65-.61.53-1.25-.56-1.12-1-1.08S103.71,173.68,103.83,174.32Z" style="fill:#263238"></path><path d="M111.63,173.51c.12.64.55,1.12,1,1.07s.65-.61.52-1.25-.55-1.13-1-1.08S111.51,172.86,111.63,173.51Z" style="fill:#263238"></path><path d="M112,172.31l1.43-.63S112.86,173,112,172.31Z" style="fill:#263238"></path><path d="M109.66,174.82a19.21,19.21,0,0,0,3,3.83,2.57,2.57,0,0,1-2.17.7Z" style="fill:#ed893e"></path><path d="M107.34,182.16a5.66,5.66,0,0,0,1.08,0,.18.18,0,0,0,.15-.21.22.22,0,0,0-.23-.17,5.45,5.45,0,0,1-4.46-1.5.18.18,0,1,0-.27.24A5.72,5.72,0,0,0,107.34,182.16Z" style="fill:#263238"></path><path d="M91.25,181a5.36,5.36,0,0,0,3.38,2.71c1.8.39,2.48-1.69,1.79-3.7-.61-1.81-2.29-4.2-4-3.68S90.27,179.25,91.25,181Z" style="fill:#ffb573"></path><path d="M101.49,170.94a.41.41,0,0,0,.27-.13,2.8,2.8,0,0,1,2.43-1.06.36.36,0,0,0,.41-.32.41.41,0,0,0-.35-.43,3.5,3.5,0,0,0-3.09,1.3.39.39,0,0,0,.07.54A.37.37,0,0,0,101.49,170.94Z" style="fill:#263238"></path><path d="M113.37,169.89a.34.34,0,0,0,.23-.59,3.67,3.67,0,0,0-3.08-1.21.33.33,0,0,0-.27.4.39.39,0,0,0,.43.29,3,3,0,0,1,2.43,1A.48.48,0,0,0,113.37,169.89Z" style="fill:#263238"></path><path d="M104.18,173.12l1.44-.62S105.07,173.8,104.18,173.12Z" style="fill:#263238"></path><path d="M106.85,160.3s.27,4.73-.79,6.58a5.16,5.16,0,0,1-3.22,2.27,8.72,8.72,0,0,0-.2-5.12c.28,3.14-.07,6.18-2.74,8.88-1.25,1.79-1.55,5.64-.39,7.1-2.67-2.27-5.13-6.93-7.36-9.52,0,0,.33-6.27,2.15-8.13s2.42-1.67,5.84-2.45A13.48,13.48,0,0,1,106.85,160.3Z" style="fill:#263238"></path><path d="M92.74,211c-1.28,1.49-2.71,3.11-4,4.72s-2.65,3.24-3.94,4.87-2.52,3.3-3.73,5-2.33,3.37-3.41,5.08l.37-.88a1.88,1.88,0,0,0-.07-1.06c-.11-.32-.26-.42-.25-.36a3.39,3.39,0,0,0,1.07.95,25.87,25.87,0,0,0,4.56,2.18c1.7.67,3.5,1.26,5.31,1.82s3.7,1.1,5.51,1.63l.08,0a2.49,2.49,0,0,1-.65,4.88c-2.1,0-4.09-.09-6.15-.25a55.8,55.8,0,0,1-6.18-.9,28.52,28.52,0,0,1-6.45-2A12.2,12.2,0,0,1,71.16,234a7.47,7.47,0,0,1-1.71-2.91,7.15,7.15,0,0,1,0-4,4,4,0,0,1,.27-.68l.1-.2c1-2,2.15-4.07,3.36-6s2.43-3.81,3.75-5.63S79.56,211,81,209.3s2.83-3.4,4.47-5.11a5,5,0,0,1,7.38,6.68Z" style="fill:#ffb573"></path><path d="M103.06,228.57l-2.59,0A3,3,0,0,0,98,229.87l-2.62,3.72a5.61,5.61,0,0,0-.7,5.11l.38,1.06c4.29.27,9.14-2.61,9.14-2.61l1.47-.67a2.52,2.52,0,0,0,1.33-3.31l-1.29-2.93A2.89,2.89,0,0,0,103.06,228.57Z" style="fill:#ffb573"></path><path d="M99.38,253.5s.46,7.91,4.32,21.75a218.83,218.83,0,0,0,8.8,25.17c1.93,4.64,4.14,9.55,6.67,14.72,1.14,2.35,2.36,4.75,3.64,7.21,1.48,41.92,25,84.55,25,84.55,1.3.67,5.85-.07,5.82-1.39-3.48-5.53-10.34-59.25-14.76-84.73-.27-3.46-.67-7.18-1.16-11-1.29-10.28-3.2-21.47-5.06-31.31-2.92-15.5-5.7-27.65-5.7-27.65l-7.76.76Z" style="fill:#ffb573"></path><path d="M90.13,311.54h0q.93,6.75,2.42,14.46c-8.41,28.05,8.87,82.77,8.87,82.77,2.93.57,5.52.19,6.83-.79-3.26-16.48-.91-59.35,1.62-85,.22-2.32.51-4.88.82-7.61.52-4.62,1.14-9.72,1.8-15,1.11-8.81,2.37-18.08,3.5-26.29,1.38-9.94,2.59-18.34,3.2-22.56.27-1.86.42-2.91.42-2.91l-24.27,2.62s-6.16,6.93-7.1,28.53A176.64,176.64,0,0,0,90.13,311.54Z" style="fill:#ffb573"></path><path d="M90.13,311.54h0a75.58,75.58,0,0,0,20.56,3.86c.52-4.62,1.14-9.72,1.8-15,1.93,4.64,4.14,9.55,6.67,14.72a50.51,50.51,0,0,0,18.55-5.37c-1.29-10.28-3.2-21.47-5.06-31.31a30.39,30.39,0,0,0-8.24-3.32,35.71,35.71,0,0,0-8.42-1,63,63,0,0,0-12.3,1.12,77.45,77.45,0,0,0-15.45,4.56A176.64,176.64,0,0,0,90.13,311.54Z" style="opacity:0.2"></path><path d="M100.83,415.93h1.35l.37-1.66,4.48,2h11.34s1.8-1.82-3.6-3.26a4.51,4.51,0,0,1-.76-.29c-2.88-1.35-7-5.92-7-5.92h-6.22a8.28,8.28,0,0,0-.51.9C99.62,409.08,98.44,412,100.83,415.93Z" style="fill:#263238"></path><path d="M100.3,407.71v0c.82-.92,4.56,3.11,7.3,4.48,2.44,1.21,5.19,1.75,6.41.52-2.88-1.35-7.41-7.25-7.41-7.25h-5S100.59,407.13,100.3,407.71Z" style="fill:#ffb573"></path><path d="M148.07,415.93h1.35l.38-1.66,4.47,2h11.34s1.81-1.82-3.59-3.26a4.29,4.29,0,0,1-.77-.29c-2.88-1.35-7-5.92-7-5.92h-6.22a8.28,8.28,0,0,0-.51.9C146.86,409.08,145.69,412,148.07,415.93Z" style="fill:#263238"></path><path d="M147.54,407.71v0c.82-.92,4.56,3.11,7.3,4.48,2.44,1.21,5.19,1.75,6.41.52-2.88-1.35-7.41-7.25-7.41-7.25h-5S147.83,407.13,147.54,407.71Z" style="fill:#ffb573"></path><path d="M127.4,248.66H95.18l-.87,4.15S82.48,269.2,88.47,310c0,0,25.92,3,50.33-2.24,0,0-5.48-42-11.21-55.66Z" style="fill:#263238"></path><polygon points="104.78 252.23 93.97 252.23 94.63 249.15 104.78 249.15 104.78 252.23" style="fill:#263238"></polygon><polygon points="124.42 249.15 127.66 249.15 127.94 252.23 124.42 252.23 124.42 249.15" style="fill:#263238"></polygon><rect x="105.83" y="249.15" width="17.51" height="3.08" style="fill:#263238"></rect><polygon points="104.78 252.23 93.97 252.23 94.63 249.15 104.78 249.15 104.78 252.23" style="fill:#fff;isolation:isolate;opacity:0.6000000000000001"></polygon><polygon points="124.42 249.15 127.66 249.15 127.94 252.23 124.42 252.23 124.42 249.15" style="fill:#fff;isolation:isolate;opacity:0.6000000000000001"></polygon><rect x="105.83" y="249.15" width="17.51" height="3.08" style="fill:#fff;isolation:isolate;opacity:0.6000000000000001"></rect><rect x="113.09" y="248.91" width="5.91" height="3.55" rx="0.54" transform="translate(232.09 501.38) rotate(180)" style="fill:#fff"></rect></g><g id="freepik--Conversation--inject-62"><rect x="59.24" y="336.43" width="41.37" height="41.37" rx="11.01" style="fill:#7E57C2"></rect><rect x="59.24" y="336.43" width="41.37" height="41.37" rx="11.01" style="fill:#7E57C2"></rect><path d="M84.56,350.54v5.82a4.37,4.37,0,0,1-4.37,4.37H74.63l-6.35,6.35v-6.35a4.37,4.37,0,0,1-4.37-4.37v-5.82a4.37,4.37,0,0,1,4.37-4.37H80.19A4.37,4.37,0,0,1,84.56,350.54Z" style="fill:#fff"></path><path d="M67.78,368.29v-7.08a4.89,4.89,0,0,1-4.37-4.85v-5.82a4.87,4.87,0,0,1,4.87-4.87H80.19a4.87,4.87,0,0,1,4.87,4.87v5.82a4.87,4.87,0,0,1-4.87,4.87H74.84Zm.5-21.62a3.87,3.87,0,0,0-3.87,3.87v5.82a3.87,3.87,0,0,0,3.87,3.87h.5v5.65l5.64-5.65h5.77a3.87,3.87,0,0,0,3.87-3.87v-5.82a3.87,3.87,0,0,0-3.87-3.87Z" style="fill:#7E57C2"></path><path d="M95.94,359.33v4.48a3.36,3.36,0,0,1-3.36,3.36v4.88l-4.89-4.88H83.42a3.36,3.36,0,0,1-3.36-3.36v-4.48A3.36,3.36,0,0,1,83.42,356h9.16A3.36,3.36,0,0,1,95.94,359.33Z" style="fill:#fff"></path><path d="M93.08,373.26l-5.59-5.59H83.42a3.87,3.87,0,0,1-3.86-3.86v-4.48a3.87,3.87,0,0,1,3.86-3.87h9.16a3.87,3.87,0,0,1,3.86,3.87v4.48a3.85,3.85,0,0,1-3.36,3.82Zm-9.66-16.8a2.87,2.87,0,0,0-2.86,2.87v4.48a2.87,2.87,0,0,0,2.86,2.86H87.9l4.18,4.18v-4.18h.5a2.87,2.87,0,0,0,2.86-2.86v-4.48a2.87,2.87,0,0,0-2.86-2.87Z" style="fill:#7E57C2"></path><path d="M79.94,350.91H69.16a.5.5,0,0,1-.5-.5.5.5,0,0,1,.5-.5H79.94a.5.5,0,0,1,.5.5A.5.5,0,0,1,79.94,350.91Z" style="fill:#7E57C2"></path><path d="M79.94,353.42H69.16a.5.5,0,0,1,0-1H79.94a.5.5,0,0,1,0,1Z" style="fill:#7E57C2"></path><path d="M76.94,355.94H69.16a.5.5,0,0,1-.5-.5.5.5,0,0,1,.5-.5h7.78a.5.5,0,0,1,.5.5A.5.5,0,0,1,76.94,355.94Z" style="fill:#7E57C2"></path></g><g id="freepik--Chart--inject-62"><rect x="107.22" y="98.65" width="41.43" height="41.43" rx="11.02" style="fill:#7E57C2"></rect><g style="opacity:0"><rect x="107.22" y="98.65" width="41.43" height="41.43" rx="11.02" style="fill:#fff;opacity:0.6000000000000001"></rect></g><polygon points="119.1 129.51 113.09 129.51 113.13 121.58 119.14 121.58 119.1 129.51" style="fill:#fff"></polygon><polygon points="127.07 129.51 121.07 129.51 121.11 117.19 127.11 117.19 127.07 129.51" style="fill:#fff"></polygon><polygon points="134.88 129.51 128.88 129.51 128.92 112.68 134.93 112.68 134.88 129.51" style="fill:#fff"></polygon><polygon points="142.74 129.47 136.73 129.47 136.78 105.86 142.78 105.86 142.74 129.47" style="fill:#fff"></polygon></g><g id="freepik--Games--inject-62"><rect x="225.21" y="355.19" width="41.43" height="41.43" rx="11.03" style="fill:#7E57C2"></rect><g style="opacity:0"><rect x="225.21" y="355.19" width="41.43" height="41.43" rx="11.03" style="fill:#fff;opacity:0.6000000000000001"></rect></g><path d="M263.73,385.83c-.25-1.92-2.3-18.32-2.59-20.22s-7.76-2.21-8.8,0a2,2,0,0,1-.14.25,2.29,2.29,0,0,1-1.75,1l-4.31.4h-.44l-4.31-.4a2.29,2.29,0,0,1-1.75-1,2,2,0,0,1-.14-.25c-1-2.21-8.51-1.9-8.8,0s-2.34,18.3-2.59,20.22,2.66,2.54,3.72,1.16l6.13-8.05a2.4,2.4,0,0,1,1.56-.93l3.79-.6a16.92,16.92,0,0,1,5.22,0l3.79.6a2.4,2.4,0,0,1,1.56.93L260,387C261.07,388.37,264,387.74,263.73,385.83Z" style="fill:#7E57C2"></path><path d="M263.73,385.83c-.25-1.92-2.3-18.32-2.59-20.22s-7.76-2.21-8.8,0a2,2,0,0,1-.14.25,2.29,2.29,0,0,1-1.75,1l-4.31.4h-.44l-4.31-.4a2.29,2.29,0,0,1-1.75-1,2,2,0,0,1-.14-.25c-1-2.21-8.51-1.9-8.8,0s-2.34,18.3-2.59,20.22,2.66,2.54,3.72,1.16l6.13-8.05a2.4,2.4,0,0,1,1.56-.93l3.79-.6a16.92,16.92,0,0,1,5.22,0l3.79.6a2.4,2.4,0,0,1,1.56.93L260,387C261.07,388.37,264,387.74,263.73,385.83Z" style="fill:#fff"></path><rect x="232.7" y="371.49" width="6.82" height="1.99" transform="translate(-194.23 276.05) rotate(-45)" style="fill:#7E57C2"></rect><rect x="232.7" y="371.49" width="6.82" height="1.99" transform="translate(332.54 -57.85) rotate(45)" style="fill:#7E57C2"></rect><polygon points="237.82 369.37 236.11 371.08 234.4 369.37 232.99 370.78 234.7 372.49 232.99 374.2 234.4 375.6 236.11 373.89 237.82 375.6 239.22 374.2 237.51 372.49 239.22 370.78 237.82 369.37" style="opacity:0.4"></polygon><rect x="252.32" y="371.49" width="6.82" height="1.99" transform="translate(-188.49 289.93) rotate(-45)" style="fill:#7E57C2"></rect><rect x="252.32" y="371.49" width="6.82" height="1.99" transform="translate(338.29 -71.73) rotate(45)" style="fill:#7E57C2"></rect><polygon points="257.44 369.37 255.73 371.08 254.02 369.37 252.62 370.78 254.33 372.49 252.62 374.2 254.02 375.6 255.73 373.89 257.44 375.6 258.85 374.2 257.14 372.49 258.85 370.78 257.44 369.37" style="opacity:0.4"></polygon></g><g id="freepik--Battery--inject-62"><path d="M280,86h21.27a11,11,0,0,1,11,11v21.27a11,11,0,0,1-11,11H280a11,11,0,0,1-11-11V97A11,11,0,0,1,280,86Z" style="fill:#7E57C2"></path><path d="M277,99.64v5.19h-3.79v7.57H277v5.18h28.3V99.64Zm12.75,14.75H282V102.83h11.56Z" style="fill:#fff"></path></g><g id="freepik--wifi-icon--inject-62"><path d="M396.49,280.15h19.38a11,11,0,0,1,11,11v19.38a11,11,0,0,1-11,11H396.49a11,11,0,0,1-11-11V291.18A11,11,0,0,1,396.49,280.15Z" style="fill:#7E57C2"></path><g style="opacity:0"><path d="M396.49,280.15h19.38a11,11,0,0,1,11,11v19.38a11,11,0,0,1-11,11H396.49a11,11,0,0,1-11-11V291.18A11,11,0,0,1,396.49,280.15Z" style="fill:#fff;opacity:0.6000000000000001"></path></g><path d="M409.54,309.77a3.17,3.17,0,1,1-3.17-3.17A3.17,3.17,0,0,1,409.54,309.77Z" style="fill:#fff"></path><path d="M406.43,292.64a14.87,14.87,0,0,1,13,7.81l3.12-2.31a18.62,18.62,0,0,0-32.77.91l3.23,2A14.93,14.93,0,0,1,406.43,292.64Z" style="fill:#fff"></path><path d="M406.53,298.79a9.65,9.65,0,0,1,8.78,5.73l3.13-2.32a13.44,13.44,0,0,0-24.13.56l3.3,2.07A9.64,9.64,0,0,1,406.53,298.79Z" style="fill:#fff"></path><path d="M406.43,304.62a4.58,4.58,0,0,1,4.49,3.87l3.33-2.47a8.47,8.47,0,0,0-15.75.23l3.45,2.17A4.6,4.6,0,0,1,406.43,304.62Z" style="fill:#fff"></path></g></svg>